<?xml version="1.0" encoding="UTF-8"?>
<svg version="1.1" xmlns="http://www.w3.org/2000/svg" width="500" height="500">
<path d="M0 0 C0.84788086 0.5875708 0.84788086 0.5875708 1.71289062 1.18701172 C18.53242283 13.05760706 33.91383643 28.64872807 45 46 C45.63639404 46.98250732 45.63639404 46.98250732 46.28564453 47.98486328 C69.85028533 84.80954758 78.33437825 131.17167625 69 174 C61.52907008 206.07896924 46.84405561 233.32826121 24 257 C22.72769531 258.36705078 22.72769531 258.36705078 21.4296875 259.76171875 C-4.41933306 286.80673877 -44.24547339 306.15323298 -82.00317383 307.16113281 C-83.40439386 307.18063285 -84.80570263 307.19441131 -86.20703125 307.203125 C-86.96578552 307.21018463 -87.72453979 307.21724426 -88.50628662 307.22451782 C-120.49853263 307.4546514 -120.49853263 307.4546514 -134 304 C-135.20100342 303.69400879 -135.20100342 303.69400879 -136.42626953 303.38183594 C-176.98330424 292.69624328 -213.87938696 268.47040391 -237 233 C-237.60231445 232.07622559 -237.60231445 232.07622559 -238.21679688 231.13378906 C-261.38388866 195.06897276 -270.57451049 151.35056497 -263 109 C-262.80535156 107.86433594 -262.61070312 106.72867188 -262.41015625 105.55859375 C-256.87117636 76.74934334 -243.21241888 50.03494452 -224 28 C-223.57605957 27.50902832 -223.15211914 27.01805664 -222.71533203 26.51220703 C-216.36475175 19.19639424 -209.65468674 12.97493958 -202 7 C-201.25878906 6.35804687 -200.51757812 5.71609375 -199.75390625 5.0546875 C-145.02525664 -41.80138339 -57.42138609 -40.18557745 0 0 Z " fill="#1ED461" transform="translate(361,112)"/>
<path d="M0 0 C1.42758133 -0.00392761 1.42758133 -0.00392761 2.88400269 -0.00793457 C27.88913364 -0.01523131 52.8958506 2.12757724 77.1875 8.3125 C78.64446289 8.66586426 78.64446289 8.66586426 80.13085938 9.02636719 C99.07135972 13.63711208 117.098514 19.63046591 134.25 29 C134.88695801 29.34401855 135.52391602 29.68803711 136.18017578 30.04248047 C141.04407359 32.84210348 144.65676775 36.25103551 147.1875 41.3125 C147.77807744 46.99112925 147.48120905 51.48172672 144.1875 56.3125 C140.4971037 59.94384996 137.23013899 62.46324701 132 62.875 C127.0425406 62.82542541 123.48356856 61.20899719 119.25 58.8125 C93.94612831 44.50084784 65.89070035 37.77310267 37.1875 34.3125 C35.85138672 34.13895996 35.85138672 34.13895996 34.48828125 33.96191406 C10.61710889 30.91933271 -15.01663122 30.60865506 -38.8125 34.3125 C-40.2680127 34.5297876 -40.2680127 34.5297876 -41.75292969 34.75146484 C-44.96293075 35.2354813 -48.16940324 35.73765102 -51.375 36.25 C-52.36330811 36.40758789 -53.35161621 36.56517578 -54.36987305 36.72753906 C-59.92603903 37.66634439 -65.21139381 38.91497145 -70.56323242 40.68603516 C-75.95583676 42.18798053 -80.24850825 42.15242149 -85.1875 39.5 C-86.05375 38.778125 -86.92 38.05625 -87.8125 37.3125 C-88.39 36.85875 -88.9675 36.405 -89.5625 35.9375 C-92.40204828 32.24608723 -93.02947346 28.42369351 -92.8125 23.875 C-92.00536168 18.65492065 -90.04489613 15.47490835 -85.8125 12.3125 C-61.32596153 -0.96645364 -27.06115695 0.0719845 0 0 Z " fill="#020502" transform="translate(240.8125,171.6875)"/>
<path d="M0 0 C0.90492188 -0.00983917 1.80984375 -0.01967834 2.7421875 -0.02981567 C38.21644626 -0.33548458 72.07473086 2.76543328 105.33203125 16.23828125 C106.26934082 16.61654053 106.26934082 16.61654053 107.22558594 17.00244141 C136.93359036 29.12151287 136.93359036 29.12151287 141.33203125 38.23828125 C142.41658307 42.64645962 141.64875042 46.12864669 139.58203125 50.11328125 C137.01894748 53.67311982 135.39902026 54.88901416 131.10986328 55.61376953 C123.92543434 55.82322383 119.32342242 53.69364991 113.20703125 50.11328125 C104.43073185 45.26545742 95.87050106 41.3009106 86.33203125 38.23828125 C85.57051758 37.98739746 84.80900391 37.73651367 84.02441406 37.47802734 C69.37851355 32.72236891 54.57781656 30.22270916 39.33203125 28.23828125 C38.06254639 28.06248535 36.79306152 27.88668945 35.48510742 27.70556641 C31.37844577 27.19744176 27.28755984 27.04423966 23.15234375 27 C22.39021576 26.99029678 21.62808777 26.98059357 20.84286499 26.97059631 C18.38086619 26.94573694 15.91914299 26.93307126 13.45703125 26.92578125 C12.61454834 26.92316284 11.77206543 26.92054443 10.90405273 26.91784668 C-7.93669607 26.91159204 -25.8363794 28.90559497 -43.88671875 34.53515625 C-48.01411139 35.57859821 -51.64639338 35.73567634 -55.66796875 34.23828125 C-58.97736989 31.56259522 -62.20303882 28.54504897 -63.07421875 24.22265625 C-63.2455552 20.13913758 -63.01671363 16.92106222 -60.66796875 13.48828125 C-48.00529014 0.79629089 -16.94287373 0.15247614 0 0 Z " fill="#020502" transform="translate(222.66796875,229.76171875)"/>
<path d="M0 0 C1.62618866 0.35468712 3.25248957 0.70885997 4.87890625 1.0625 C21.56882417 4.89593358 48.9604902 12.035003 59 27 C59.64382155 31.42627318 59.3076673 33.44619886 57.125 37.375 C55.05080574 39.93723997 54.32778708 40.80349874 51.15234375 41.2734375 C45.6273552 41.52678794 42.4107795 40.46978439 37.73828125 37.62109375 C25.29502284 30.25454276 11.97641602 25.50530517 -2 22 C-2.80421387 21.78827148 -3.60842773 21.57654297 -4.43701172 21.35839844 C-32.70481537 14.20213601 -65.6828812 16.03594004 -94 22 C-95.82640981 22.37182662 -97.65322281 22.74167933 -99.48046875 23.109375 C-100.27219482 23.27147461 -101.0639209 23.43357422 -101.87963867 23.60058594 C-106.61264299 24.49214553 -109.06016091 24.53198439 -113.3125 22.125 C-116.00685026 19.99458352 -116.81866546 19.31856112 -117.2734375 16.01171875 C-117.30695313 15.24472656 -117.34046875 14.47773438 -117.375 13.6875 C-117.42398438 12.92824219 -117.47296875 12.16898437 -117.5234375 11.38671875 C-116.72397002 7.74138569 -114.85981916 6.31417031 -112 4 C-106.88747803 1.91909054 -101.4082966 1.03413156 -96 0 C-95.08428223 -0.18481934 -94.16856445 -0.36963867 -93.22509766 -0.56005859 C-63.26489414 -6.40558979 -29.76272003 -7.16630771 0 0 Z " fill="#020603" transform="translate(284,289)"/>
<path d="M0 0 C-4.35002317 2.48572753 -9.24668774 3.56434848 -14.06835938 4.79296875 C-19.45988679 6.33917999 -21.91392091 8.27592508 -25 13 C-26.22812744 17.57687244 -25.37024996 21.24578711 -23.3125 25.4375 C-20.17915755 28.90958217 -17.9596352 29.86495183 -13.3359375 30.18359375 C-9.32721055 29.96297295 -5.80100805 28.87520939 -2 27.6875 C34.67889992 17.13239395 76.5327224 19.89732474 113 30 C113.64759277 30.17611816 114.29518555 30.35223633 114.96240234 30.53369141 C128.68504057 34.32099117 141.69248043 39.85556443 154 47 C159.45678978 50.03922469 163.81755798 51.05029903 170 50 C173.58711511 48.80429496 174.46216057 47.3041627 176.19921875 44.03125 C177.62931067 40.40369977 177.49499628 37.89809572 177 34 C175.87049866 31.70691755 174.61210624 30.01513281 173 28 C174.875 28.25 174.875 28.25 177 29 C180.14861046 33.78410776 179.71096151 39.5175339 179 45 C177.33401431 48.74668026 174.86791534 50.57568583 171.1875 52.375 C164.52579022 53.6812176 159.99057876 53.59434726 154 50 C154 49.34 154 48.68 154 48 C153.4225 47.855625 152.845 47.71125 152.25 47.5625 C149.125 46.78125 149.125 46.78125 146 46 C146 45.34 146 44.68 146 44 C144.783125 43.9175 143.56625 43.835 142.3125 43.75 C138.11135857 43.24233142 136.26573714 41.69423314 133 39 C131.06335514 38.37736261 129.16027853 37.95536918 127.16015625 37.58984375 C125 37 125 37 122.19921875 35.57421875 C114.17833066 31.62743255 104.74884154 29.69716826 95.85546875 29.17578125 C94 29 94 29 92 28 C89.63604525 27.72318002 87.27186835 27.55485459 84.8984375 27.37890625 C82 27 82 27 78.45263672 25.99511719 C73.57673322 24.76160556 68.86791535 24.69415888 63.859375 24.69921875 C62.41597748 24.69279106 62.41597748 24.69279106 60.94342041 24.68623352 C58.90955385 24.68051256 56.87566683 24.67997341 54.84179688 24.68432617 C51.80040332 24.68744826 48.7600209 24.66413115 45.71875 24.63867188 C32.93355824 24.59822558 20.54748622 25.43744963 8 28 C7.505 28.495 7.505 28.495 7 29 C5.48071962 29.07179964 3.95832518 29.08392007 2.4375 29.0625 C1.61121094 29.05347656 0.78492188 29.04445313 -0.06640625 29.03515625 C-1.02353516 29.01775391 -1.02353516 29.01775391 -2 29 C-2 29.66 -2 30.32 -2 31 C-4.12437048 31.50266794 -6.24951726 32.0020561 -8.375 32.5 C-9.55835938 32.7784375 -10.74171875 33.056875 -11.9609375 33.34375 C-15 34 -15 34 -17 34 C-17.45375 33.525625 -17.9075 33.05125 -18.375 32.5625 C-19.86932628 30.81376845 -19.86932628 30.81376845 -22 30.75 C-22.66 30.5025 -23.32 30.255 -24 30 C-25.03485877 27.68191636 -26.0355414 25.34824702 -27 23 C-27.99 22.67 -28.98 22.34 -30 22 C-29.25749403 17.91621717 -28.17076699 13.98060777 -27 10 C-26.34 10 -25.68 10 -25 10 C-25 9.34 -25 8.68 -25 8 C-24.34 8 -23.68 8 -23 8 C-22.81953125 7.38640625 -22.6390625 6.7728125 -22.453125 6.140625 C-20.28713638 2.94986757 -17.31965587 2.58588871 -13.75 1.75 C-12.76580078 1.49089844 -12.76580078 1.49089844 -11.76171875 1.2265625 C-7.76701551 0.22590125 -4.10968531 -0.17868197 0 0 Z " fill="#36B564" transform="translate(186,234)"/>
<path d="M0 0 C-0.33 0.99 -0.66 1.98 -1 3 C-1.99 3 -2.98 3 -4 3 C-4.33 1.68 -4.66 0.36 -5 -1 C-5.99 -1 -6.98 -1 -8 -1 C-8 -1.66 -8 -2.32 -8 -3 C-9.24716797 -3.27263672 -9.24716797 -3.27263672 -10.51953125 -3.55078125 C-11.60621094 -3.80214844 -12.69289063 -4.05351563 -13.8125 -4.3125 C-14.89144531 -4.55613281 -15.97039062 -4.79976562 -17.08203125 -5.05078125 C-20 -6 -20 -6 -21.39453125 -7.4453125 C-24.00855678 -9.97665596 -27.45404515 -10.58552461 -30.875 -11.5625 C-32.28960308 -11.97863551 -33.70367968 -12.39656547 -35.1171875 -12.81640625 C-35.78951416 -13.01459961 -36.46184082 -13.21279297 -37.15454102 -13.41699219 C-39 -14 -39 -14 -41.70703125 -15.11328125 C-44.13246916 -16.05122743 -46.22910278 -16.393651 -48.8125 -16.625 C-49.99779297 -16.73714844 -49.99779297 -16.73714844 -51.20703125 -16.8515625 C-51.79871094 -16.90054688 -52.39039063 -16.94953125 -53 -17 C-53 -17.66 -53 -18.32 -53 -19 C-60.31739951 -19.77420828 -67.53430662 -20.14886805 -74.890625 -20.1328125 C-76.37390289 -20.13424759 -76.37390289 -20.13424759 -77.887146 -20.13571167 C-79.95764226 -20.1363866 -82.02814072 -20.13458073 -84.09863281 -20.13037109 C-87.25590769 -20.12498993 -90.41304183 -20.13035131 -93.5703125 -20.13671875 C-95.59375031 -20.13605829 -97.61718804 -20.13477781 -99.640625 -20.1328125 C-101.04396088 -20.13584885 -101.04396088 -20.13584885 -102.47564697 -20.13894653 C-110.7470904 -20.62806293 -110.7470904 -20.62806293 -118 -18 C-120.96456743 -17.45892098 -123.94031251 -17.03460937 -126.921875 -16.59765625 C-131.00694482 -15.80448914 -134.03038849 -14.96961151 -137 -12 C-139.6015625 -11.8046875 -139.6015625 -11.8046875 -142.625 -11.875 C-144.12933594 -11.90207031 -144.12933594 -11.90207031 -145.6640625 -11.9296875 C-146.43492187 -11.95289062 -147.20578125 -11.97609375 -148 -12 C-144.8309538 -15.1690462 -140.74678823 -15.7427753 -136.5 -16.9375 C-135.55600342 -17.20328857 -134.61200684 -17.46907715 -133.6394043 -17.74291992 C-88.50189368 -30.09654326 -40.33184607 -23.84744032 0 0 Z " fill="#35B364" transform="translate(352,106)"/>
<path d="M0 0 C0.671875 1.66796875 0.671875 1.66796875 1 4 C-0.109375 6.55078125 -0.109375 6.55078125 -1.75 9.3125 C-4.1494568 13.47527854 -6.21718371 17.54295928 -8 22 C-8.66 22 -9.32 22 -10 22 C-10.12375 22.639375 -10.2475 23.27875 -10.375 23.9375 C-10.58125 24.948125 -10.7875 25.95875 -11 27 C-11.1340625 27.72445312 -11.268125 28.44890625 -11.40625 29.1953125 C-11.63828125 30.36707031 -11.63828125 30.36707031 -11.875 31.5625 C-12.01679687 32.30628906 -12.15859375 33.05007812 -12.3046875 33.81640625 C-13 36 -13 36 -14.5 37.859375 C-16.51765792 40.73874099 -16.69779501 43.21937225 -17.125 46.6875 C-17.91464968 52.91464968 -17.91464968 52.91464968 -19 54 C-21.90447385 66.62618426 -22.28363563 79.23342603 -22.25 92.125 C-22.24904327 92.89431854 -22.24808655 93.66363708 -22.24710083 94.45626831 C-22.73345729 102.4790379 -22.73345729 102.4790379 -21 110 C-20.73547401 111.59330349 -20.51418718 113.19391751 -20.31640625 114.796875 C-20.19330078 115.7559375 -20.07019531 116.715 -19.94335938 117.703125 C-19.69143618 119.71851053 -19.44140543 121.73413361 -19.19335938 123.75 C-18.54990917 128.73757259 -17.76550483 133.26141561 -16 138 C-16 138.66 -16 139.32 -16 140 C-16.66 140 -17.32 140 -18 140 C-25.82843828 114.31056176 -27.74394279 86.52430909 -23 60 C-22.80535156 58.86433594 -22.61070313 57.72867188 -22.41015625 56.55859375 C-18.57898546 36.63197173 -10.5869815 17.2809836 0 0 Z " fill="#35B161" transform="translate(121,161)"/>
<path d="M0 0 C1.98 0 3.96 0 6 0 C5.195625 0.61875 4.39125 1.2375 3.5625 1.875 C0.97174905 4.02342761 0.14640113 4.75679037 -0.23828125 8.0234375 C-0.4720523 13.11743036 -0.4720523 13.11743036 1.875 17.5 C8.40908899 22.11229811 17.29733858 18.82679078 24.75 17.5625 C25.45125 17.44036133 26.1525 17.31822266 26.875 17.19238281 C28.38229288 16.93145306 29.89078158 16.67737485 31.40014648 16.42871094 C33.25612127 16.1226642 35.10959672 15.80129903 36.96118164 15.46972656 C47.61430022 13.71818437 58.16304796 13.60189213 68.9375 13.625 C69.89020782 13.62554382 70.84291565 13.62608765 71.82449341 13.62664795 C86.21924111 13.66443698 100.01723905 14.29499949 114 18 C114.87575684 18.22494141 115.75151367 18.44988281 116.65380859 18.68164062 C127.26603593 21.46655913 137.22628681 24.97046146 147 30 C144.46988873 30.94224834 143.30753122 31.11115586 140.73046875 30.1796875 C139.47169922 29.53386719 139.47169922 29.53386719 138.1875 28.875 C125.35744517 22.78157027 112.92636039 20.0154098 98.93847656 18.30957031 C97 18 97 18 94 17 C91.26587727 16.76414916 88.55170862 16.57620497 85.8125 16.4375 C85.00731934 16.3964917 84.20213867 16.3554834 83.37255859 16.31323242 C53.00838506 14.34204866 53.00838506 14.34204866 24 21 C17.05238669 22.21283767 8.53057141 23.61817856 2 20.625 C0 19 0 19 -2 17 C-2.265625 14.35546875 -2.265625 14.35546875 -2.25 11.1875 C-2.25773438 9.63095703 -2.25773438 9.63095703 -2.265625 8.04296875 C-1.99831735 4.9807237 -1.29090101 2.77133908 0 0 Z " fill="#38B666" transform="translate(168,292)"/>
<path d="M0 0 C0.495 0.495 0.495 0.495 1 1 C3.34987262 1.23527773 5.70556039 1.41386417 8.0625 1.5625 C9.35285156 1.64628906 10.64320313 1.73007813 11.97265625 1.81640625 C13.47119141 1.90728516 13.47119141 1.90728516 15 2 C15 2.66 15 3.32 15 4 C16.093125 3.938125 17.18625 3.87625 18.3125 3.8125 C23.79640423 3.78296371 28.80042462 5.39424878 34 7 C34 7.33 34 7.66 34 8 C26.13435113 7.46579902 18.3691272 6.38464252 10.58129883 5.19213867 C-5.87644652 2.73711588 -22.05131805 1.65581798 -38.6875 1.75 C-39.64912048 1.75276947 -40.61074097 1.75553894 -41.60150146 1.75839233 C-61.68375093 1.82611809 -81.2277778 3.00713471 -101.00439453 6.64306641 C-104.20302533 7.21517287 -107.41240486 7.69990483 -110.625 8.1875 C-111.66914063 8.34605469 -112.71328125 8.50460938 -113.7890625 8.66796875 C-114.51867187 8.77753906 -115.24828125 8.88710937 -116 9 C-113.60236815 6.60236815 -112.66726502 6.65719414 -109.375 6.375 C-108.55773437 6.30023438 -107.74046875 6.22546875 -106.8984375 6.1484375 C-106.27195313 6.09945312 -105.64546875 6.05046875 -105 6 C-105 5.34 -105 4.68 -105 4 C-104.2479126 3.91435791 -103.4958252 3.82871582 -102.72094727 3.74047852 C-99.33426705 3.35229855 -95.94839239 2.95749016 -92.5625 2.5625 C-91.37849609 2.42779297 -90.19449219 2.29308594 -88.97460938 2.15429688 C-87.84990234 2.02216797 -86.72519531 1.89003906 -85.56640625 1.75390625 C-84.00321655 1.57323608 -84.00321655 1.57323608 -82.40844727 1.38891602 C-80.05482705 1.24994061 -80.05482705 1.24994061 -79 0 C-76.09707646 -0.25698012 -73.22255422 -0.43500641 -70.3125 -0.5625 C-69.36785889 -0.6042334 -68.42321777 -0.6459668 -67.44995117 -0.68896484 C-45.23618824 -1.53596071 -22.1301228 -2.39965187 0 0 Z " fill="#35B663" transform="translate(281,171)"/>
<path d="M0 0 C1.74965358 -0.05429959 3.49979787 -0.09292823 5.25 -0.125 C6.22453125 -0.14820313 7.1990625 -0.17140625 8.203125 -0.1953125 C11.0196498 0.00137219 12.60949036 0.55431084 15 2 C15 2.66 15 3.32 15 4 C16.175625 3.9071875 16.175625 3.9071875 17.375 3.8125 C28.76244634 4.40150584 39.72365849 10.47766783 49.9609375 15.09375 C51.93986862 15.97327494 53.93498991 16.80092177 55.9375 17.625 C59 19 59 19 61 21 C62.36125 21.309375 62.36125 21.309375 63.75 21.625 C69.30097365 23.97348885 72.70668576 29.51280064 75 35 C75.63014914 39.01968822 76.01559114 43.21799621 73.94921875 46.84375 C72.69912574 48.28928528 71.35135206 49.64864794 70 51 C69.31903578 52.32608822 68.64669414 53.65686601 68 55 C64.8870419 56.55647905 61.60088167 56.18446048 58.1875 56.1875 C57.47529297 56.19974609 56.76308594 56.21199219 56.02929688 56.22460938 C51.90302948 56.23606063 48.65209261 55.97357248 45 54 C44.49726563 53.4946875 43.99453125 52.989375 43.4765625 52.46875 C41.09816815 50.10293975 38.13083303 49.70546917 34.9609375 48.84375 C34.31382812 48.5653125 33.66671875 48.286875 33 48 C32.67 47.01 32.34 46.02 32 45 C37.29662643 46.56293895 41.70162699 48.33383293 46.4375 51.1875 C51.70940526 54.14833194 56.01817838 55.23834202 62 54 C67.13308791 51.38679161 70.1797908 48.46062759 72 43 C72.52229846 38.50480837 72.43816069 34.9715737 70.5625 30.8125 C64.84446058 24.53660307 57.18511414 20.86119016 49.5 17.5 C48.19361572 16.92318481 48.19361572 16.92318481 46.86083984 16.3347168 C31.6426291 9.71225922 16.04427026 5.17728594 0 1 C0 0.67 0 0.34 0 0 Z " fill="#37B766" transform="translate(315,179)"/>
<path d="M0 0 C0.81081528 -0.00970322 1.62163055 -0.01940643 2.45701599 -0.02940369 C5.10681053 -0.05450297 7.75634806 -0.06696437 10.40625 -0.07421875 C11.30795929 -0.07683716 12.20966858 -0.07945557 13.13870239 -0.08215332 C28.72996816 -0.08700442 43.59119446 1.14262704 58.90625 4.23828125 C59.74639648 4.39844727 60.58654297 4.55861328 61.45214844 4.72363281 C73.0432538 6.96017957 83.38870291 10.89037595 93.90625 16.23828125 C89.8725569 17.58284562 88.67902528 16.4326984 84.84375 14.67578125 C77.70117921 11.60858658 70.41053917 9.71949478 62.84375 7.98828125 C61.7808374 7.74263428 60.7179248 7.4969873 59.62280273 7.24389648 C44.59088798 3.90334313 30.12600434 2.8411664 14.78125 2.86328125 C13.81823975 2.86149872 12.85522949 2.85971619 11.86303711 2.85787964 C-3.66349362 2.85417671 -18.50711279 3.96044156 -33.76757812 6.98461914 C-36.17497102 7.24713816 -37.80630529 6.98103967 -40.09375 6.23828125 C-39.43375 6.23828125 -38.77375 6.23828125 -38.09375 6.23828125 C-38.09375 5.57828125 -38.09375 4.91828125 -38.09375 4.23828125 C-37.29155029 4.15263916 -36.48935059 4.06699707 -35.6628418 3.97875977 C-32.03526614 3.58953717 -28.40826191 3.19522109 -24.78125 2.80078125 C-23.51861328 2.66607422 -22.25597656 2.53136719 -20.95507812 2.39257812 C-19.74658203 2.26044922 -18.53808594 2.12832031 -17.29296875 1.9921875 C-15.61980591 1.81151733 -15.61980591 1.81151733 -13.9128418 1.62719727 C-2.27957198 0.02229566 -2.27957198 0.02229566 0 0 Z " fill="#38A85F" transform="translate(224.09375,282.76171875)"/>
<path d="M0 0 C4.01610334 -0.02517326 8.03217463 -0.04307755 12.04833984 -0.05493164 C14.06739929 -0.06229008 16.08643697 -0.07501162 18.10546875 -0.08789062 C29.77263447 -0.11662749 41.3102638 0.50437686 52.875 2.0625 C53.57496094 2.15337891 54.27492188 2.24425781 54.99609375 2.33789062 C56.66453198 2.55501615 58.3323469 2.77692433 60 3 C60 3.66 60 4.32 60 5 C60.95712891 4.98259766 60.95712891 4.98259766 61.93359375 4.96484375 C62.75988281 4.95582031 63.58617187 4.94679687 64.4375 4.9375 C65.26121094 4.92589844 66.08492188 4.91429687 66.93359375 4.90234375 C69 5 69 5 70 6 C72.32817964 6.36760731 74.6618385 6.70241581 77 7 C77 7.66 77 8.32 77 9 C78.216875 9.0825 79.43375 9.165 80.6875 9.25 C89.4998954 10.23532295 97.86702538 13.30110375 105.85546875 17.05078125 C109.47159407 18.65136131 113.22851591 19.82308298 117 21 C117 21.66 117 22.32 117 23 C117.57878906 23.12375 118.15757812 23.2475 118.75390625 23.375 C121.0351872 24.00979122 122.85716259 24.87950144 124.9375 26 C127.95065563 27.55445038 130.60016619 28.57502077 134 29 C134 29.99 134 30.98 134 32 C134.66 32.33 135.32 32.66 136 33 C132.81244096 33 131.85353334 32.56549621 129.1484375 31.05859375 C128.00979248 30.43573486 128.00979248 30.43573486 126.84814453 29.80029297 C126.03200684 29.35057129 125.21586914 28.90084961 124.375 28.4375 C98.83522226 14.79032722 71.65107659 7.78844255 43 4 C41.52716466 3.78638742 40.05449081 3.57165645 38.58203125 3.35546875 C25.79790736 1.57483931 12.88643145 1.3655936 0 1 C0 0.67 0 0.34 0 0 Z " fill="#36B967" transform="translate(224,228)"/>
<path d="M0 0 C21.24754551 -0.36536785 41.91260417 0.02416312 63 3 C64.03125 3.13921875 65.0625 3.2784375 66.125 3.421875 C86.65767225 6.25035536 107.28552412 10.86037225 126 20 C122.90279155 20.87840996 121.09354597 20.99435406 118 20 C118 19.34 118 18.68 118 18 C117.236875 17.9175 116.47375 17.835 115.6875 17.75 C112.4794165 17.09750844 109.79266184 16.22345891 106.75 15.0625 C102.16842985 13.33028992 97.72278039 12.20873423 92.8984375 11.39453125 C91 11 91 11 90 10 C87.23048175 9.44909042 84.47326553 8.95371139 81.6875 8.5 C80.87676025 8.3654541 80.06602051 8.2309082 79.23071289 8.09228516 C73.52858497 7.17402627 67.85902699 6.54331843 62.08984375 6.2109375 C60 6 60 6 59 5 C56.37091119 4.7882613 53.75841938 4.62365621 51.125 4.5 C43.40035861 4.13345287 43.40035861 4.13345287 40 3 C30.43642675 1.68032465 20.76648249 1.93950339 11.13989258 2.12475586 C9.62818481 2.14227905 9.62818481 2.14227905 8.0859375 2.16015625 C7.1789209 2.17699463 6.2719043 2.19383301 5.33740234 2.21118164 C3 2 3 2 0 0 Z " fill="#3AB769" transform="translate(221,203)"/>
<path d="M0 0 C1.65 0 3.3 0 5 0 C-11.95531823 17.8477034 -42.96129806 28.1279926 -67 31 C-70.1593679 30.94938262 -72.88673823 30.6008049 -76 30 C-76 29.67 -76 29.34 -76 29 C-74.85402344 28.87882812 -73.70804687 28.75765625 -72.52734375 28.6328125 C-70.99736094 28.46385734 -69.46741493 28.29456873 -67.9375 28.125 C-67.18533203 28.04636719 -66.43316406 27.96773438 -65.65820312 27.88671875 C-60.91893037 27.35329411 -56.5857829 26.36211373 -52 25 C-48.5625 24.875 -48.5625 24.875 -46 25 C-46 24.34 -46 23.68 -46 23 C-44.91460937 22.66226562 -43.82921875 22.32453125 -42.7109375 21.9765625 C-41.26561539 21.52607249 -39.82030343 21.07554993 -38.375 20.625 C-37.66214844 20.40328125 -36.94929688 20.1815625 -36.21484375 19.953125 C-32.12806752 18.67835076 -28.05642851 17.36920458 -24 16 C-24 15.34 -24 14.68 -24 14 C-21.36 13.34 -18.72 12.68 -16 12 C-16 11.34 -16 10.68 -16 10 C-14.35 10 -12.7 10 -11 10 C-11 9.01 -11 8.02 -11 7 C-10.195625 6.87625 -9.39125 6.7525 -8.5625 6.625 C-7.716875 6.41875 -6.87125 6.2125 -6 6 C-5.67 5.34 -5.34 4.68 -5 4 C-4.34 3.855625 -3.68 3.71125 -3 3.5625 C-2.34 3.376875 -1.68 3.19125 -1 3 C-0.67 2.01 -0.34 1.02 0 0 Z " fill="#35B064" transform="translate(358,387)"/>
<path d="M0 0 C-4.35002317 2.48572753 -9.24668774 3.56434848 -14.06835938 4.79296875 C-19.45988679 6.33917999 -21.91392091 8.27592508 -25 13 C-26.22812744 17.57687244 -25.37024996 21.24578711 -23.3125 25.4375 C-19.97976032 29.13053586 -17.40131621 29.9229199 -12.44921875 30.1953125 C-11.20785156 30.17210937 -9.96648437 30.14890625 -8.6875 30.125 C-7.43324219 30.10695313 -6.17898437 30.08890625 -4.88671875 30.0703125 C-3.93410156 30.04710937 -2.98148438 30.02390625 -2 30 C-2 30.33 -2 30.66 -2 31 C-4.12437048 31.50266794 -6.24951726 32.0020561 -8.375 32.5 C-9.55835938 32.7784375 -10.74171875 33.056875 -11.9609375 33.34375 C-15 34 -15 34 -17 34 C-17.45375 33.525625 -17.9075 33.05125 -18.375 32.5625 C-19.86932628 30.81376845 -19.86932628 30.81376845 -22 30.75 C-22.66 30.5025 -23.32 30.255 -24 30 C-25.03485877 27.68191636 -26.0355414 25.34824702 -27 23 C-27.99 22.67 -28.98 22.34 -30 22 C-29.25749403 17.91621717 -28.17076699 13.98060777 -27 10 C-26.34 10 -25.68 10 -25 10 C-25 9.34 -25 8.68 -25 8 C-24.34 8 -23.68 8 -23 8 C-22.81953125 7.38640625 -22.6390625 6.7728125 -22.453125 6.140625 C-20.28713638 2.94986757 -17.31965587 2.58588871 -13.75 1.75 C-12.76580078 1.49089844 -12.76580078 1.49089844 -11.76171875 1.2265625 C-7.76701551 0.22590125 -4.10968531 -0.17868197 0 0 Z " fill="#2EC165" transform="translate(186,234)"/>
<path d="M0 0 C2.93756119 -0.0269501 5.87487555 -0.04681474 8.8125 -0.0625 C9.64587891 -0.07087891 10.47925781 -0.07925781 11.33789062 -0.08789062 C12.14033203 -0.09111328 12.94277344 -0.09433594 13.76953125 -0.09765625 C14.87711792 -0.10551147 14.87711792 -0.10551147 16.00708008 -0.11352539 C18 0 18 0 21 1 C23.05472795 1.13903635 25.11321104 1.2252076 27.171875 1.28125 C29.00492187 1.33732422 29.00492187 1.33732422 30.875 1.39453125 C32.15375 1.42933594 33.4325 1.46414063 34.75 1.5 C37.26572693 1.56931084 39.78136032 1.64212193 42.296875 1.71875 C43.97281738 1.76418945 43.97281738 1.76418945 45.68261719 1.81054688 C49.16564102 2.00945963 52.55466351 2.46054002 56 3 C56 3.33 56 3.66 56 4 C15.74769186 4.61916858 15.74769186 4.61916858 0 1 C0 0.67 0 0.34 0 0 Z " fill="#34AE5F" transform="translate(227,415)"/>
<path d="M0 0 C0.80060349 0.00007553 1.60120697 0.00015106 2.42607117 0.00022888 C3.71527214 0.00797081 3.71527214 0.00797081 5.03051758 0.01586914 C5.91411453 0.01728409 6.79771149 0.01869904 7.70808411 0.02015686 C10.53044011 0.0257547 13.3527168 0.03830678 16.17504883 0.05102539 C18.08845914 0.05604067 20.0018707 0.06060353 21.9152832 0.06469727 C26.60606897 0.07572342 31.29679545 0.09298656 35.98754883 0.11352539 C35.98754883 0.44352539 35.98754883 0.77352539 35.98754883 1.11352539 C35.24633789 1.12287109 34.50512695 1.1322168 33.74145508 1.1418457 C14.6955793 1.43907326 -3.8126452 3.05895258 -22.6706543 5.67211914 C-27.10882485 6.25834155 -31.55369363 6.71695948 -36.01245117 7.11352539 C-35.35245117 6.78352539 -34.69245117 6.45352539 -34.01245117 6.11352539 C-34.01245117 5.45352539 -34.01245117 4.79352539 -34.01245117 4.11352539 C-33.21025146 4.0278833 -32.40805176 3.94224121 -31.58154297 3.85400391 C-27.95396731 3.46478131 -24.32696309 3.07046523 -20.69995117 2.67602539 C-19.43731445 2.54131836 -18.17467773 2.40661133 -16.8737793 2.26782227 C-15.6652832 2.13569336 -14.45678711 2.00356445 -13.21166992 1.86743164 C-11.53850708 1.68676147 -11.53850708 1.68676147 -9.83154297 1.50244141 C-6.3908007 1.02776379 -3.50031901 -0.01104202 0 0 Z " fill="#35C66B" transform="translate(220.012451171875,282.886474609375)"/>
<path d="M0 0 C0.33 0.66 0.66 1.32 1 2 C-2.49205938 5.59476701 -6.04033675 8.92026191 -10 12 C-10.66 12 -11.32 12 -12 12 C-12.2475 12.5775 -12.495 13.155 -12.75 13.75 C-14.19393699 16.34908658 -15.73521987 18.07836838 -18 20 C-18.99 20 -19.98 20 -21 20 C-21 20.99 -21 21.98 -21 23 C-23.375 24.75 -23.375 24.75 -26 26 C-26.66 25.67 -27.32 25.34 -28 25 C-23.83722786 19.67916343 -19.11525697 15.19158296 -14 10.8125 C-13.12867432 10.06468262 -13.12867432 10.06468262 -12.23974609 9.30175781 C-8.30276777 5.97582328 -4.22658816 2.94890781 0 0 Z " fill="#30B260" transform="translate(168,112)"/>
<path d="M0 0 C1.32 0.33 2.64 0.66 4 1 C-14.19292605 33.09646302 -14.19292605 33.09646302 -26 39 C-24.87548273 36.0280615 -23.77706209 33.66559313 -22 31 C-21.34 31.33 -20.68 31.66 -20 32 C-20 31.01 -20 30.02 -20 29 C-19.34 29 -18.68 29 -18 29 C-18 28.34 -18 27.68 -18 27 C-17.34 27 -16.68 27 -16 27 C-14.79371992 24.66785852 -13.8345262 22.50357861 -13 20 C-12.01 20 -11.02 20 -10 20 C-9.896875 19.42378906 -9.79375 18.84757812 -9.6875 18.25390625 C-8.88705041 15.62970503 -7.71075441 14.07183062 -6 11.9375 C-4.0569079 9.50396398 -2.9987139 7.99614169 -2 5 C-1.34 5 -0.68 5 0 5 C0 3.35 0 1.7 0 0 Z " fill="#37B165" transform="translate(409,331)"/>
<path d="M0 0 C0.671875 1.66796875 0.671875 1.66796875 1 4 C-0.109375 6.55078125 -0.109375 6.55078125 -1.75 9.3125 C-4.1494568 13.47527854 -6.21718371 17.54295928 -8 22 C-8.66 22 -9.32 22 -10 22 C-10.12375 22.639375 -10.2475 23.27875 -10.375 23.9375 C-10.58125 24.948125 -10.7875 25.95875 -11 27 C-11.14566406 27.75925781 -11.29132813 28.51851562 -11.44140625 29.30078125 C-11.60511719 30.10902344 -11.76882812 30.91726562 -11.9375 31.75 C-12.09089844 32.52859375 -12.24429688 33.3071875 -12.40234375 34.109375 C-12.59957031 34.73328125 -12.79679687 35.3571875 -13 36 C-13.99 36.495 -13.99 36.495 -15 37 C-14.65464669 29.07331925 -12.16575084 23.28610745 -8.625 16.25 C-8.13 15.23550781 -7.635 14.22101563 -7.125 13.17578125 C-4.90940708 8.66758282 -2.62705425 4.28447441 0 0 Z " fill="#36B162" transform="translate(121,161)"/>
<path d="M0 0 C0.66 0.33 1.32 0.66 2 1 C0.44269696 7.86696482 -1.81318297 14.32035606 -4.5 20.8125 C-4.79656494 21.52913818 -5.09312988 22.24577637 -5.39868164 22.98413086 C-7.11824818 27.07160951 -8.9686757 31.05501957 -11 35 C-11.33 35 -11.66 35 -12 35 C-12 33.02 -12 31.04 -12 29 C-11.34 28.67 -10.68 28.34 -10 28 C-7.62902273 23.44293818 -6.61375362 19.14995171 -7 14 C-6.01 14 -5.02 14 -4 14 C-4 13.01 -4 12.02 -4 11 C-3.34 11 -2.68 11 -2 11 C-2 8.36 -2 5.72 -2 3 C-1.34 3 -0.68 3 0 3 C0 2.01 0 1.02 0 0 Z " fill="#33AF60" transform="translate(425,295)"/>
<path d="M0 0 C0 0.33 0 0.66 0 1 C-0.80518066 1.10546143 -1.61036133 1.21092285 -2.43994141 1.31958008 C-5.50094228 1.72328872 -8.56120569 2.1321375 -11.62109375 2.54418945 C-13.56720106 2.80476108 -15.51406079 3.0596938 -17.4609375 3.31445312 C-25.16106258 4.35554146 -32.63247669 5.7050207 -40.18505859 7.51831055 C-43 8 -43 8 -46 7 C-42.12315913 5.80712589 -39.08378077 5 -35 5 C-35 4.34 -35 3.68 -35 3 C-31.04290448 2.48987386 -27.08416532 1.99378354 -23.125 1.5 C-21.46210938 1.28537109 -21.46210938 1.28537109 -19.765625 1.06640625 C-13.13589652 0.24743979 -6.67970419 -0.20407583 0 0 Z " fill="#3BBA69" transform="translate(211,172)"/>
<path d="M0 0 C-2.3523991 1.56826607 -4.39441183 2.66542568 -6.9375 3.8125 C-10.64976691 5.68228149 -12.92976418 7.27357553 -15 11 C-16.47688166 16.80906785 -16.01898617 21.41809706 -14 27 C-14.66 27 -15.32 27 -16 27 C-16 26.34 -16 25.68 -16 25 C-16.66 25 -17.32 25 -18 25 C-18.05428973 22.77110504 -18.09292338 20.54182529 -18.125 18.3125 C-18.15980469 16.45044922 -18.15980469 16.45044922 -18.1953125 14.55078125 C-18.01032021 11.18762143 -17.45767895 9.0014413 -16 6 C-15.01 6 -14.02 6 -13 6 C-13 5.01 -13 4.02 -13 3 C-4.57142857 -0.42857143 -4.57142857 -0.42857143 0 0 Z " fill="#37BA69" transform="translate(165,180)"/>
<path d="M0 0 C4.28229593 0.50379952 8.1591232 0.97287058 12 3 C12.474375 3.66 12.94875 4.32 13.4375 5 C14.92845806 7.29182106 14.92845806 7.29182106 18.0625 8 C21 9 21 9 22.375 11.125 C22.58125 11.74375 22.7875 12.3625 23 13 C17.50434318 11.46367421 12.97905386 8.84581871 8.125 5.9375 C7.34125 5.47794922 6.5575 5.01839844 5.75 4.54492188 C1.50437107 2.02639112 1.50437107 2.02639112 0 1 C0 0.67 0 0.34 0 0 Z " fill="#31BA64" transform="translate(171,391)"/>
<path d="M0 0 C0 0.66 0 1.32 0 2 C-1.05960938 2.13277344 -2.11921875 2.26554688 -3.2109375 2.40234375 C-4.59898279 2.58053875 -5.98700231 2.7589346 -7.375 2.9375 C-8.07367188 3.02451172 -8.77234375 3.11152344 -9.4921875 3.20117188 C-13.36783575 3.66318128 -13.36783575 3.66318128 -17 5 C-18.54023996 5.06950541 -20.08334988 5.08452357 -21.625 5.0625 C-22.85089844 5.04896484 -22.85089844 5.04896484 -24.1015625 5.03515625 C-25.04128906 5.01775391 -25.04128906 5.01775391 -26 5 C-26.33 4.34 -26.66 3.68 -27 3 C-24.00114586 2.49212954 -21.00121874 1.99353375 -18 1.5 C-16.74123047 1.28537109 -16.74123047 1.28537109 -15.45703125 1.06640625 C-10.22817799 0.21519758 -5.29724973 -0.14714583 0 0 Z " fill="#35B261" transform="translate(216,204)"/>
<path d="M0 0 C0 0.66 0 1.32 0 2 C-3.02023067 3.51011533 -6.15361141 3.38689513 -9.4921875 3.62109375 C-11.98395934 3.85256393 -11.98395934 3.85256393 -13.8984375 5.02734375 C-16.88981034 6.41182672 -19.47667685 6.19046646 -22.75 6.125 C-23.92046875 6.10695312 -25.0909375 6.08890625 -26.296875 6.0703125 C-27.63492188 6.03550781 -27.63492188 6.03550781 -29 6 C-29 5.67 -29 5.34 -29 5 C-27.92685547 4.83564453 -27.92685547 4.83564453 -26.83203125 4.66796875 C-20.07399064 3.59262723 -13.45529218 2.23035419 -6.8125 0.5859375 C-4 0 -4 0 0 0 Z " fill="#36B464" transform="translate(188,208)"/>
<path d="M0 0 C0.99 0.33 1.98 0.66 3 1 C3.94921875 2.92578125 3.94921875 2.92578125 4.6875 5.3125 C4.93886719 6.09238281 5.19023438 6.87226563 5.44921875 7.67578125 C6 10 6 10 6 14 C6.66 14 7.32 14 8 14 C8.12375 15.134375 8.2475 16.26875 8.375 17.4375 C8.58125 18.613125 8.7875 19.78875 9 21 C9.66 21.33 10.32 21.66 11 22 C10.34 22.66 9.68 23.32 9 24 C0 4.93032787 0 4.93032787 0 0 Z " fill="#36A55E" transform="translate(104,302)"/>
<path d="M0 0 C4.00707535 0.96169808 6.52508595 1.64897657 9.875 4.125 C13.94750443 6.56850266 17.34700663 6.72755896 22 6 C24.21321638 5.04542479 24.21321638 5.04542479 26 4 C25 7 25 7 22 9 C16.90238402 9.23673139 12.35469919 8.94239944 8.125 6 C7.42375 5.34 6.7225 4.68 6 4 C3.31492671 3.21053391 3.31492671 3.21053391 1 3 C0.67 2.01 0.34 1.02 0 0 Z " fill="#3AB868" transform="translate(315,323)"/>
<path d="M0 0 C6.15234375 0.5859375 6.15234375 0.5859375 8 1 C8.33 1.66 8.66 2.32 9 3 C11.04256899 4.0930369 11.04256899 4.0930369 13.4375 5.0625 C14.24058594 5.40410156 15.04367187 5.74570312 15.87109375 6.09765625 C16.57363281 6.39542969 17.27617187 6.69320313 18 7 C18.66 7.33 19.32 7.66 20 8 C20 8.66 20 9.32 20 10 C21.32 10.66 22.64 11.32 24 12 C23.67 12.66 23.34 13.32 23 14 C22.51273437 13.64808594 22.02546875 13.29617188 21.5234375 12.93359375 C14.70456337 8.18517776 7.46758827 4.59039095 0 1 C0 0.67 0 0.34 0 0 Z " fill="#36AD63" transform="translate(318,300)"/>
<path d="M0 0 C0.66 0 1.32 0 2 0 C2.19335938 1.08539063 2.38671875 2.17078125 2.5859375 3.2890625 C2.84872917 4.73441668 3.11176286 6.17972688 3.375 7.625 C3.50132813 8.33785156 3.62765625 9.05070312 3.7578125 9.78515625 C4.53216481 14.00537633 5.59604782 17.93464281 7 22 C7 22.66 7 23.32 7 24 C6.34 24 5.68 24 5 24 C2.5255343 16.01265489 0.38624723 8.38156489 0 0 Z " fill="#30A057" transform="translate(98,277)"/>
<path d="M0 0 C6.4459733 2.76437986 12.62406979 5.52725192 16 12 C16.60283711 14.9758232 16.41218732 16.90859512 16 20 C15.34 20.99 14.68 21.98 14 23 C14.05800781 22.33613281 14.11601562 21.67226563 14.17578125 20.98828125 C14.56947667 14.99798365 14.56947667 14.99798365 11.5 10 C10.675 9.34 9.85 8.68 9 8 C9 7.34 9 6.68 9 6 C7.88625 5.7525 6.7725 5.505 5.625 5.25 C2 4 2 4 0.7734375 1.921875 C0.51820313 1.28765625 0.26296875 0.6534375 0 0 Z " fill="#011F05" transform="translate(348,256)"/>
<path d="M0 0 C-4.37704079 2.47842829 -9.25445239 3.62738637 -14.06835938 4.96875 C-18.4903066 6.27834262 -21.53513696 7.81313967 -25 11 C-25 10.01 -25 9.02 -25 8 C-24.34 8 -23.68 8 -23 8 C-22.72929687 7.07960937 -22.72929687 7.07960937 -22.453125 6.140625 C-20.28713638 2.94986757 -17.31965587 2.58588871 -13.75 1.75 C-13.09386719 1.57726562 -12.43773437 1.40453125 -11.76171875 1.2265625 C-7.76701551 0.22590125 -4.10968531 -0.17868197 0 0 Z " fill="#39B769" transform="translate(186,234)"/>
<path d="M0 0 C1.41569064 -0.08167446 2.83276805 -0.13949698 4.25 -0.1875 C5.43335938 -0.23970703 5.43335938 -0.23970703 6.640625 -0.29296875 C9.55293248 0.06865883 10.70000152 1.2307704 13 3 C15.57258666 3.77832644 15.57258666 3.77832644 18.25 4.1875 C19.14203125 4.34605469 20.0340625 4.50460937 20.953125 4.66796875 C21.62859375 4.77753906 22.3040625 4.88710938 23 5 C22.67 5.66 22.34 6.32 22 7 C14.39086902 5.7205886 7.26774103 3.57243067 0 1 C0 0.67 0 0.34 0 0 Z " fill="#31AB5E" transform="translate(204,408)"/>
<path d="M0 0 C0.33 0 0.66 0 1 0 C1.21577218 4.53121583 0.44923498 7.73754417 -1 12 C-1.43919142 14.66410618 -1.72193689 17.31205657 -2 20 C-2.99 20.33 -3.98 20.66 -5 21 C-5.33 21.99 -5.66 22.98 -6 24 C-5.36145015 18.47324097 -4.06306646 13.37632649 -2.4375 8.0625 C-2.20353516 7.28326172 -1.96957031 6.50402344 -1.72851562 5.70117188 C-1.15682579 3.79942813 -0.57904309 1.89951774 0 0 Z " fill="#309C56" transform="translate(105,194)"/>
<path d="M0 0 C-5.84208191 2.47845899 -11.72300166 4.08141488 -18 5 C-18 5.66 -18 6.32 -18 7 C-18.66 7 -19.32 7 -20 7 C-19.5 5.1875 -19.5 5.1875 -18 3 C-12.62449924 0.16430006 -5.92025696 -2.04931972 0 0 Z " fill="#042309" transform="translate(188,291)"/>
<path d="M0 0 C7.04072777 3.53737047 12.97993271 7.93509996 19 13 C15.74691773 13 13.82673039 12.79366117 11.4375 10.5 C10.963125 10.005 10.48875 9.51 10 9 C9.34 8.67 8.68 8.34 8 8 C8 7.34 8 6.68 8 6 C7.05125 5.7525 6.1025 5.505 5.125 5.25 C2 4 2 4 0.8046875 1.921875 C0.53914063 1.28765625 0.27359375 0.6534375 0 0 Z " fill="#3AAE65" transform="translate(352,107)"/>
<path d="M0 0 C0 0.33 0 0.66 0 1 C-3.5815927 1.53330505 -7.16545271 2.04946167 -10.75 2.5625 C-12.27367187 2.78969727 -12.27367187 2.78969727 -13.828125 3.02148438 C-14.8078125 3.16005859 -15.7875 3.29863281 -16.796875 3.44140625 C-18.14797363 3.63778687 -18.14797363 3.63778687 -19.52636719 3.83813477 C-21.95968635 3.99736203 -23.69214003 3.73710222 -26 3 C-25.34 3 -24.68 3 -24 3 C-24 2.34 -24 1.68 -24 1 C-15.97497656 0.20318916 -8.06350113 -0.12867289 0 0 Z " fill="#3AB263" transform="translate(210,286)"/>
<path d="M0 0 C0.89267578 0.00322266 1.78535156 0.00644531 2.70507812 0.00976562 C4.09823242 0.02233398 4.09823242 0.02233398 5.51953125 0.03515625 C6.45990234 0.03966797 7.40027344 0.04417969 8.36914062 0.04882812 C10.69016837 0.06060999 13.01106769 0.07706067 15.33203125 0.09765625 C15.33203125 0.42765625 15.33203125 0.75765625 15.33203125 1.09765625 C12.33254734 1.43630766 9.33258199 1.76870698 6.33203125 2.09765625 C5.07326172 2.24074219 5.07326172 2.24074219 3.7890625 2.38671875 C-1.3993782 2.94980534 -6.44923836 3.19429941 -11.66796875 3.09765625 C-7.67147261 1.03050307 -4.51517689 -0.02875909 0 0 Z " fill="#001A03" transform="translate(205.66796875,202.90234375)"/>
<path d="M0 0 C0 0.33 0 0.66 0 1 C-7.04321983 2.59295252 -12.85650045 3.1710655 -20 2 C-20 1.67 -20 1.34 -20 1 C-17.23001178 0.6376556 -14.45937619 0.28482483 -11.6875 -0.0625 C-10.90181641 -0.16626953 -10.11613281 -0.27003906 -9.30664062 -0.37695312 C-8.54931641 -0.47041016 -7.79199219 -0.56386719 -7.01171875 -0.66015625 C-6.31522217 -0.74918213 -5.61872559 -0.83820801 -4.90112305 -0.92993164 C-3 -1 -3 -1 0 0 Z " fill="#2CAB59" transform="translate(302,415)"/>
<path d="M0 0 C6.02770138 0.47587116 10.76678289 3.19722957 16 6 C15.01 6.99 14.02 7.98 13 9 C10 8 10 8 8.75 6.125 C6.25875011 3.09991084 3.64464828 2.37533897 0 1 C0 0.67 0 0.34 0 0 Z " fill="#021D05" transform="translate(351,191)"/>
<path d="M0 0 C0.53625 0.226875 1.0725 0.45375 1.625 0.6875 C1.625 1.6775 1.625 2.6675 1.625 3.6875 C-1.28999943 4.48310764 -4.12061419 4.94072499 -7.125 5.25 C-8.32382813 5.37568359 -8.32382813 5.37568359 -9.546875 5.50390625 C-10.45179688 5.59478516 -10.45179688 5.59478516 -11.375 5.6875 C-8.25679775 2.39349406 -4.76724115 -0.62726857 0 0 Z " fill="#2EB65E" transform="translate(192.375,99.3125)"/>
<path d="M0 0 C2.3431213 0.25561323 4.67843403 0.59270772 7 1 C7.33 1.66 7.66 2.32 8 3 C7.34 3 6.68 3 6 3 C6.515625 3.763125 7.03125 4.52625 7.5625 5.3125 C8.036875 6.199375 8.51125 7.08625 9 8 C8.67 8.99 8.34 9.98 8 11 C6.66375099 9.35653302 5.33107149 7.71016314 4 6.0625 C3.2575 5.14597656 2.515 4.22945313 1.75 3.28515625 C0 1 0 1 0 0 Z " fill="#31B462" transform="translate(126,347)"/>
<path d="M0 0 C4.7078045 1.24618354 6.59091811 3.74412335 9.5078125 7.37890625 C11.41637421 9.45234371 13.29591748 10.28421345 16 11 C14.02 11.99 14.02 11.99 12 13 C9.99698146 11.0238076 7.99750133 9.04425526 6 7.0625 C5.42765625 6.49853516 4.8553125 5.93457031 4.265625 5.35351562 C2.82474495 3.92121224 1.41012857 2.46258871 0 1 C0 0.67 0 0.34 0 0 Z " fill="#36B364" transform="translate(143,367)"/>
<path d="M0 0 C0 0.33 0 0.66 0 1 C-0.75925781 1.12117188 -1.51851562 1.24234375 -2.30078125 1.3671875 C-3.79158203 1.61855469 -3.79158203 1.61855469 -5.3125 1.875 C-6.29863281 2.03742188 -7.28476563 2.19984375 -8.30078125 2.3671875 C-11.20059827 2.88085454 -11.20059827 2.88085454 -14 5 C-14 4.34 -14 3.68 -14 3 C-16.31 3 -18.62 3 -21 3 C-21 2.67 -21 2.34 -21 2 C-13.90294338 0.65504172 -7.2274605 -0.24091535 0 0 Z " fill="#04250A" transform="translate(209,287)"/>
<path d="M0 0 C0 0.33 0 0.66 0 1 C-2.22844214 1.6483289 -4.4577846 2.29356369 -6.6875 2.9375 C-8.54955078 3.47697266 -8.54955078 3.47697266 -10.44921875 4.02734375 C-13.29639862 4.80726431 -16.09802254 5.47287216 -19 6 C-16.28291948 1.92437923 -13.74861739 1.37204625 -9.0625 0.375 C-6.00696414 0.00085275 -3.07499539 -0.07321418 0 0 Z " fill="#26D066" transform="translate(172,177)"/>
<path d="M0 0 C1 3 1 3 0.0625 5.1875 C-0.288125 5.785625 -0.63875 6.38375 -1 7 C-1.66 7 -2.32 7 -3 7 C-3.103125 7.598125 -3.20625 8.19625 -3.3125 8.8125 C-4.08876455 11.28243264 -5.07088921 12.32251235 -7 14 C-7.66 13.67 -8.32 13.34 -9 13 C-6.03 8.71 -3.06 4.42 0 0 Z " fill="#30A65C" transform="translate(131,147)"/>
<path d="M0 0 C0.66 0.33 1.32 0.66 2 1 C2 4.63 2 8.26 2 12 C0.02 12.99 0.02 12.99 -2 14 C-1.835 13.43667969 -1.67 12.87335938 -1.5 12.29296875 C-0.97273328 9.8749565 -0.93469744 7.78175292 -1 5.3125 C-1.03763031 3.87549262 -1.04662859 2.43674355 -1 1 C-0.67 0.67 -0.34 0.34 0 0 Z " fill="#36BC69" transform="translate(343,313)"/>
<path d="M0 0 C5.47932789 1.54545146 10.11429181 4.15543212 15 7 C14.67 7.99 14.34 8.98 14 10 C13.01 10 12.02 10 11 10 C10.67 8.68 10.34 7.36 10 6 C9.01 6 8.02 6 7 6 C7 5.34 7 4.68 7 4 C4.69 3.34 2.38 2.68 0 2 C0 1.34 0 0.68 0 0 Z " fill="#33AC5F" transform="translate(337,99)"/>
<path d="M0 0 C3.81492106 0.67322136 7.42403074 1.49014631 11 3 C12.375 5.125 12.375 5.125 13 7 C8.1725201 5.58707905 4.2837641 3.57025846 0 1 C0 0.67 0 0.34 0 0 Z " fill="#2DA459" transform="translate(181,397)"/>
<path d="M0 0 C-1.21065165 3.63195496 -2.53691126 4.42896192 -5.5625 6.6875 C-6.38878906 7.31011719 -7.21507812 7.93273437 -8.06640625 8.57421875 C-8.70449219 9.04472656 -9.34257812 9.51523437 -10 10 C-10.33 8.68 -10.66 7.36 -11 6 C-9.68 6 -8.36 6 -7 6 C-6.731875 5.38125 -6.46375 4.7625 -6.1875 4.125 C-4.67436553 1.41728569 -3.21502868 0 0 0 Z " fill="#37B468" transform="translate(375,377)"/>
<path d="M0 0 C0 0.33 0 0.66 0 1 C-2.12437048 1.50266794 -4.24951726 2.0020561 -6.375 2.5 C-7.55835938 2.7784375 -8.74171875 3.056875 -9.9609375 3.34375 C-13 4 -13 4 -15 4 C-15.33 3.01 -15.66 2.02 -16 1 C-10.59255982 0.22750855 -5.46137814 -0.09752461 0 0 Z " fill="#33C96B" transform="translate(184,264)"/>
<path d="M0 0 C1.7492214 -0.08142927 3.49954542 -0.13938541 5.25 -0.1875 C6.22453125 -0.22230469 7.1990625 -0.25710937 8.203125 -0.29296875 C11.37468742 0.03924798 12.67040307 0.88672279 15 3 C9.47322267 3.19392201 5.24385089 2.7479503 0 1 C0 0.67 0 0.34 0 0 Z " fill="#37BB69" transform="translate(315,179)"/>
<path d="M0 0 C0 0.66 0 1.32 0 2 C0.66 2.33 1.32 2.66 2 3 C-2.39436211 3.85743651 -6.52572076 4.08948558 -11 4 C-7.88789178 0.88789178 -4.34860953 0 0 0 Z " fill="#2CB25B" transform="translate(215,90)"/>
<path d="M0 0 C3.10366328 2.42473694 3.9393296 3.51463677 4.4375 7.5 C3.9790576 11.16753923 3.27450835 12.24887053 1 15 C1.01160156 14.25234375 1.02320313 13.5046875 1.03515625 12.734375 C1.04417969 11.74953125 1.05320312 10.7646875 1.0625 9.75 C1.07410156 8.77546875 1.08570313 7.8009375 1.09765625 6.796875 C1.01195577 4.34241322 0.70706066 2.33831086 0 0 Z " fill="#011F04" transform="translate(339,312)"/>
<path d="M0 0 C0.66 0.33 1.32 0.66 2 1 C1.360625 1.78375 0.72125 2.5675 0.0625 3.375 C-1.98142313 5.79539281 -1.98142313 5.79539281 -3 8 C-3.66 8 -4.32 8 -5 8 C-5 10.64 -5 13.28 -5 16 C-5.33 16 -5.66 16 -6 16 C-6.49873087 11.92703124 -6.88737164 8.43224897 -4.6640625 4.84375 C-3.17536024 3.13838216 -1.66082274 1.53724962 0 0 Z " fill="#022007" transform="translate(166,240)"/>
<path d="M0 0 C2.64 0 5.28 0 8 0 C7 2 7 2 5.296875 2.62109375 C2.57835155 3.06955765 0.00442923 3.09529082 -2.75 3.0625 C-3.73484375 3.05347656 -4.7196875 3.04445312 -5.734375 3.03515625 C-6.48203125 3.02355469 -7.2296875 3.01195312 -8 3 C-8 2.67 -8 2.34 -8 2 C-5.36 2 -2.72 2 0 2 C0 1.34 0 0.68 0 0 Z " fill="#2ECB6B" transform="translate(216,204)"/>
<path d="M0 0 C1.32 0.33 2.64 0.66 4 1 C1.03 5.95 1.03 5.95 -2 11 C-3 8 -3 8 -2 5 C-1.34 5 -0.68 5 0 5 C0 3.35 0 1.7 0 0 Z " fill="#34A85D" transform="translate(409,331)"/>
<path d="M0 0 C-5.29151818 2.84927902 -9.95448991 4.28788143 -16 4 C-11.17353323 0.78235549 -5.80178176 -0.36261136 0 0 Z " fill="#05280B" transform="translate(178,178)"/>
<path d="M0 0 C0.66 0 1.32 0 2 0 C1.44449305 3.59905908 0.25112752 4.99909799 -2.5625 7.25 C-3.20316406 7.77078125 -3.84382813 8.2915625 -4.50390625 8.828125 C-4.99761719 9.21484375 -5.49132812 9.6015625 -6 10 C-4.87548273 7.0280615 -3.77706209 4.66559313 -2 2 C-1.34 2.33 -0.68 2.66 0 3 C0 2.01 0 1.02 0 0 Z " fill="#39BE6C" transform="translate(389,360)"/>
<path d="M0 0 C0.99 0.33 1.98 0.66 3 1 C3.94921875 3.28515625 3.94921875 3.28515625 4.6875 6.0625 C4.93886719 6.98160156 5.19023438 7.90070313 5.44921875 8.84765625 C5.63097656 9.55792969 5.81273438 10.26820313 6 11 C5.01 10.67 4.02 10.34 3 10 C2.05078125 7.71484375 2.05078125 7.71484375 1.3125 4.9375 C1.06113281 4.01839844 0.80976562 3.09929687 0.55078125 2.15234375 C0.36902344 1.44207031 0.18726562 0.73179687 0 0 Z " fill="#39B264" transform="translate(104,302)"/>
<path d="M0 0 C2.03175624 2.03175624 4.06124252 4.06309835 6.0625 6.125 C8.05792953 8.16863186 8.05792953 8.16863186 11 10 C8.36 9.67 5.72 9.34 3 9 C2.01 6.03 1.02 3.06 0 0 Z " fill="#39B667" transform="translate(159,255)"/>
<path d="M0 0 C0 3.30941204 -0.40339294 5.11090151 -2 8 C-4.625 8.8125 -4.625 8.8125 -7 9 C-2.85714286 2.57142857 -2.85714286 2.57142857 0 0 Z " fill="#34B161" transform="translate(139,138)"/>
<path d="M0 0 C-3.1254959 2.64465038 -6.08788267 3.84414715 -10 5 C-10.33 4.01 -10.66 3.02 -11 2 C-7.17679443 0.57741188 -4.08718695 -0.24042276 0 0 Z " fill="#30AA5A" transform="translate(345,399)"/>
<path d="M0 0 C1.65 0 3.3 0 5 0 C1.92000054 3.67230705 -0.2482602 4.56802365 -5 5 C-5 4.34 -5 3.68 -5 3 C-3.35 3 -1.7 3 0 3 C0 2.01 0 1.02 0 0 Z " fill="#33BE68" transform="translate(347,394)"/>
<path d="M0 0 C4.75 0.875 4.75 0.875 7 2 C7 2.66 7 3.32 7 4 C8.32 4.66 9.64 5.32 11 6 C10.67 6.66 10.34 7.32 10 8 C8.33055479 6.85821872 6.6645052 5.71147095 5 4.5625 C4.071875 3.92441406 3.14375 3.28632813 2.1875 2.62890625 C1.465625 2.09136719 0.74375 1.55382812 0 1 C0 0.67 0 0.34 0 0 Z " fill="#39B669" transform="translate(331,306)"/>
<path d="M0 0 C4.29 1.65 8.58 3.3 13 5 C13 5.33 13 5.66 13 6 C7.88523181 6.63934602 4.32745622 4.40533547 0 2 C0 1.34 0 0.68 0 0 Z " fill="#04270C" transform="translate(329,247)"/>
<path d="M0 0 C1.4540625 0.0309375 1.4540625 0.0309375 2.9375 0.0625 C2.174375 0.64 1.41125 1.2175 0.625 1.8125 C-1.72450917 3.77953093 -3.35573505 5.54726744 -5.0625 8.0625 C-4.046875 0.08258929 -4.046875 0.08258929 0 0 Z " fill="#3ABF6D" transform="translate(171.0625,291.9375)"/>
<path d="M0 0 C-2 2 -2 2 -4.3828125 2.1953125 C-5.28773438 2.17210937 -6.19265625 2.14890625 -7.125 2.125 C-8.49011719 2.09792969 -8.49011719 2.09792969 -9.8828125 2.0703125 C-10.58148438 2.04710937 -11.28015625 2.02390625 -12 2 C-7.66032699 -0.21504143 -4.80574417 -1.54470348 0 0 Z " fill="#05290D" transform="translate(190,235)"/>
<path d="M0 0 C1.22589844 0.15275391 1.22589844 0.15275391 2.4765625 0.30859375 C3.41628906 0.43427734 3.41628906 0.43427734 4.375 0.5625 C4.375 1.2225 4.375 1.8825 4.375 2.5625 C-3.05357143 2.84821429 -3.05357143 2.84821429 -6.625 0.5625 C-4.10446405 -0.69776798 -2.7707902 -0.35624445 0 0 Z " fill="#32B665" transform="translate(299.625,208.4375)"/>
<path d="M0 0 C3.28788824 3.11016455 5.83735988 6.01618925 8 10 C7.01 10.495 7.01 10.495 6 11 C3.51110752 7.43258745 1.45044271 4.10958767 0 0 Z " fill="#33A15B" transform="translate(395,145)"/>
<path d="M0 0 C5.445 1.485 5.445 1.485 11 3 C11 3.33 11 3.66 11 4 C8.36 4.33 5.72 4.66 3 5 C3.33 4.01 3.66 3.02 4 2 C2.68 1.67 1.36 1.34 0 1 C0 0.67 0 0.34 0 0 Z " fill="#26CF65" transform="translate(287,313)"/>
<path d="M0 0 C3.9492568 0.55105909 7.34920174 1.38935371 11 3 C6.99799622 4.60080151 3.95443764 3.29279692 0 2 C0 1.34 0 0.68 0 0 Z " fill="#012208" transform="translate(340,187)"/>
<path d="M0 0 C0.33 0.66 0.66 1.32 1 2 C-0.07107117 2.86949317 -1.15745944 3.72014205 -2.25 4.5625 C-2.85328125 5.03816406 -3.4565625 5.51382813 -4.078125 6.00390625 C-6 7 -6 7 -10 6 C-6.7 4.02 -3.4 2.04 0 0 Z " fill="#34A05B" transform="translate(179,105)"/>
<path d="M0 0 C-1 3 -1 3 -3.25 4.1875 C-5.99791147 4.99938294 -8.15447889 5.16260121 -11 5 C-8.12934225 2.12934225 -4.13678472 0 0 0 Z " fill="#33A75D" transform="translate(203,94)"/>
<path d="M0 0 C2.475 0.495 2.475 0.495 5 1 C5 3.31 5 5.62 5 8 C2.74754119 5.31158141 1.11786042 3.35358125 0 0 Z " fill="#2FB261" transform="translate(121,339)"/>
<path d="M0 0 C1.43655854 -0.08131463 2.8744483 -0.13933559 4.3125 -0.1875 C5.51326172 -0.23970703 5.51326172 -0.23970703 6.73828125 -0.29296875 C9.47851584 0.06198392 10.29171079 0.89366282 12 3 C3.96428571 2.19642857 3.96428571 2.19642857 0 0 Z " fill="#3BBD6B" transform="translate(284,233)"/>
<path d="M0 0 C2.64 1.65 5.28 3.3 8 5 C7.01 5.33 6.02 5.66 5 6 C4.67 6.66 4.34 7.32 4 8 C3.67 7.01 3.34 6.02 3 5 C2.01 4.67 1.02 4.34 0 4 C0 2.68 0 1.36 0 0 Z " fill="#37BB66" transform="translate(151,207)"/>
<path d="M0 0 C2.97 0.99 5.94 1.98 9 3 C5.16380575 3.95904856 3.67568464 3.91892116 0 3 C0 2.01 0 1.02 0 0 Z " fill="#04250B" transform="translate(319,243)"/>
<path d="M0 0 C3.7952131 1.49097658 5.61042731 3.75700849 8 7 C6.68 6.67 5.36 6.34 4 6 C4 5.34 4 4.68 4 4 C2.68 3.34 1.36 2.68 0 2 C0 1.34 0 0.68 0 0 Z " fill="#39AF65" transform="translate(371,121)"/>
<path d="M0 0 C0.99 0.33 1.98 0.66 3 1 C3.33 1.99 3.66 2.98 4 4 C1.69 4 -0.62 4 -3 4 C-2.67 3.01 -2.34 2.02 -2 1 C-1.34 0.67 -0.68 0.34 0 0 Z " fill="#2BCE6B" transform="translate(229,411)"/>
<path d="M0 0 C2.97 0.33 5.94 0.66 9 1 C9.33 1.99 9.66 2.98 10 4 C6.7 3.01 3.4 2.02 0 1 C0 0.67 0 0.34 0 0 Z " fill="#05280B" transform="translate(299,315)"/>
<path d="M0 0 C0.33 0.66 0.66 1.32 1 2 C1.66 2 2.32 2 3 2 C2.34 4.64 1.68 7.28 1 10 C0.67 10 0.34 10 0 10 C0 6.7 0 3.4 0 0 Z " fill="#26D068" transform="translate(365,267)"/>
<path d="M0 0 C1.65 0 3.3 0 5 0 C5.33 0.66 5.66 1.32 6 2 C4.35 2.66 2.7 3.32 1 4 C0.67 2.68 0.34 1.36 0 0 Z " fill="#061005" transform="translate(361,196)"/>
</svg>
