<?xml version="1.0" encoding="UTF-8"?>
<svg version="1.1" xmlns="http://www.w3.org/2000/svg" width="500" height="500">
<path d="M0 0 C1.90942383 -0.01836914 1.90942383 -0.01836914 3.85742188 -0.03710938 C37.75909272 -0.08881502 71.90807051 12.65267385 97.3125 35.1875 C98.38371094 36.09628906 98.38371094 36.09628906 99.4765625 37.0234375 C101.4548414 38.71146698 103.38956596 40.4368288 105.3125 42.1875 C105.910625 42.71988281 106.50875 43.25226563 107.125 43.80078125 C132.15333704 67.31698959 148.65387316 103.71937494 150.51733398 137.95019531 C150.61543986 141.94732329 150.64656775 145.93960672 150.625 149.9375 C150.62226578 150.99315155 150.62226578 150.99315155 150.61947632 152.07012939 C150.57299135 162.7428974 149.96971774 172.80506454 147.3125 183.1875 C147.14621094 183.89406738 146.97992188 184.60063477 146.80859375 185.32861328 C141.26847139 208.83822512 130.1095546 229.95506615 114.3125 248.1875 C113.77625 248.94289063 113.24 249.69828125 112.6875 250.4765625 C112.006875 251.32347656 112.006875 251.32347656 111.3125 252.1875 C110.6525 252.1875 109.9925 252.1875 109.3125 252.1875 C109.09464844 252.73921875 108.87679688 253.2909375 108.65234375 253.859375 C106.88315072 256.93354131 104.48786584 259.09507214 101.875 261.4375 C101.34076416 261.92057617 100.80652832 262.40365234 100.25610352 262.90136719 C95.21304635 267.39301438 89.89913506 271.39280448 84.3125 275.1875 C83.47589844 275.77015625 82.63929688 276.3528125 81.77734375 276.953125 C58.55265861 292.50630781 30.84041543 300.97269155 2.99902344 300.70898438 C0.3135355 300.68750828 -2.36927883 300.70893944 -5.0546875 300.734375 C-19.80749546 300.75865946 -33.86745668 298.56061059 -47.6875 293.1875 C-48.79037354 292.76525146 -48.79037354 292.76525146 -49.91552734 292.33447266 C-68.46420969 285.05349863 -84.75552286 275.81745048 -99.4765625 262.2109375 C-101.23415377 260.60239991 -103.00625138 259.09824626 -104.875 257.625 C-108.55409366 254.43645216 -111.59717167 250.94135807 -114.6875 247.1875 C-115.42871094 246.30707031 -116.16992188 245.42664063 -116.93359375 244.51953125 C-133.73459978 223.74004699 -145.65493468 198.63952613 -149.6875 172.1875 C-149.91179687 170.77597656 -149.91179687 170.77597656 -150.140625 169.3359375 C-151.72974768 156.1629469 -151.7823312 141.29362339 -149.6875 128.1875 C-149.5848584 127.53845703 -149.4822168 126.88941406 -149.37646484 126.22070312 C-145.57365585 103.23076279 -135.8490821 80.73717797 -121.6875 62.1875 C-121.15898437 61.46820313 -120.63046875 60.74890625 -120.0859375 60.0078125 C-96.05022942 27.99817283 -61.05379971 7.2780806 -21.59204102 0.84594727 C-14.42748408 -0.09449975 -7.21352501 0.00359777 0 0 Z " fill="#A344FC" transform="translate(249.6875,99.8125)"/>
<path d="M0 0 C7.20957207 0.35265465 14.42028713 0.51844999 21.63639194 0.67285079 C36.42808527 0.99332118 51.20632148 1.53522699 65.98517269 2.23288256 C76.17484009 83.82116067 76.17484009 83.82116067 55.98362583 109.81303126 C50.80537892 116.1170711 45.12634589 121.79303636 39.17267269 127.35788256 C38.54600326 127.95954619 37.91933384 128.56120981 37.27367443 129.18110567 C14.3575385 151.1653777 14.3575385 151.1653777 -1.86902958 151.33015734 C-4.15276561 151.23765002 -6.43572492 151.12294221 -8.7171436 150.9846068 C-15.81744841 150.67284725 -19.77177602 151.39149099 -25.2713123 156.03897387 C-28.77731716 159.45674428 -31.97801063 163.06064925 -35.13982731 166.79538256 C-36.49525455 168.29028176 -37.85722835 169.77927196 -39.22576481 171.26217943 C-41.68785376 173.94155186 -44.10521039 176.64960463 -46.48406559 179.40304857 C-47.31921696 180.33689379 -48.15436833 181.270739 -49.01482731 182.23288256 C-49.34482731 182.23288256 -49.67482731 182.23288256 -50.01482731 182.23288256 C-50.01482731 171.67288256 -50.01482731 161.11288256 -50.01482731 150.23288256 C-62.55482731 150.23288256 -75.09482731 150.23288256 -88.01482731 150.23288256 C-88.72136183 135.5141732 -89.28925945 120.80634889 -89.62100464 106.07434279 C-89.77931548 99.2296891 -89.99485951 92.39661553 -90.35345036 85.55929857 C-93.03184349 33.25541763 -93.03184349 33.25541763 -78.23843342 16.04318911 C-58.09891821 -5.02517636 -26.76227685 -1.33173794 0 0 Z " fill="#020203" transform="translate(261.01482731103897,157.76711744070053)"/>
<path d="M0 0 C33.99 0 67.98 0 103 0 C103.0825 11.611875 103.165 23.22375 103.25 35.1875 C103.28641602 38.8486792 103.32283203 42.5098584 103.36035156 46.28198242 C103.37841797 50.76623535 103.37841797 50.76623535 103.3817749 52.86811829 C103.38790161 54.33044813 103.40193791 55.79275824 103.42230225 57.25495911 C103.45166852 59.47525925 103.45562147 61.6943291 103.45410156 63.91479492 C103.46298401 65.16499924 103.47186646 66.41520355 103.48101807 67.70329285 C102.90967496 71.619052 101.70604421 73.17499918 99 76 C98.195625 76.845625 97.39125 77.69125 96.5625 78.5625 C94.1376973 80.86901964 91.6112722 82.91098224 89 85 C86.39710936 87.47592036 84.04955992 89.9376961 81.8125 92.75 C80 95 80 95 78 96 C76.29351176 95.89164278 74.59027756 95.73011724 72.890625 95.54296875 C63.53148077 94.90911665 54.60087588 94.32140839 47.0071106 100.53318787 C41.42225717 105.55084721 36.47734112 111.1983615 31.72045898 116.99633789 C31.15270752 117.65754639 30.58495605 118.31875488 30 119 C29.67 119 29.34 119 29 119 C29 111.41 29 103.82 29 96 C19.43 96 9.86 96 0 96 C0 64.32 0 32.64 0 0 Z " fill="#FDFDFD" transform="translate(211,173)"/>
<path d="M0 0 C4.29 0 8.58 0 13 0 C13 12.87 13 25.74 13 39 C8.71 39 4.42 39 0 39 C0 26.13 0 13.26 0 0 Z " fill="#060606" transform="translate(282,195)"/>
<path d="M0 0 C4.29 0 8.58 0 13 0 C13 12.87 13 25.74 13 39 C8.71 39 4.42 39 0 39 C0 26.13 0 13.26 0 0 Z " fill="#060606" transform="translate(247,195)"/>
<path d="M0 0 C1.20071136 -0.00102219 2.40142273 -0.00204437 3.63851929 -0.00309753 C6.91364192 0.00092954 10.18664099 0.03590392 13.46134257 0.08492017 C16.88986943 0.12883196 20.31844296 0.13280314 23.74720764 0.14109802 C30.23203688 0.16281073 36.71603502 0.22019213 43.20049912 0.29054445 C51.31132199 0.37662184 59.4222813 0.41481413 67.53344727 0.45288086 C81.99438031 0.52095839 96.45350115 0.66119338 110.91430664 0.79467773 C110.91430664 30.82467773 110.91430664 60.85467773 110.91430664 91.79467773 C110.58430664 91.79467773 110.25430664 91.79467773 109.91430664 91.79467773 C109.91430664 62.09467773 109.91430664 32.39467773 109.91430664 1.79467773 C70.31430664 1.79467773 30.71430664 1.79467773 -10.08569336 1.79467773 C-10.41569336 2.78467773 -10.74569336 3.77467773 -11.08569336 4.79467773 C-13.0416652 6.19180047 -15.04005737 7.53247681 -17.08569336 8.79467773 C-17.74569336 8.46467773 -18.40569336 8.13467773 -19.08569336 7.79467773 C-13.64638873 0.40381471 -8.84645533 -0.19790515 0 0 Z " fill="#0B001D" transform="translate(216.085693359375,159.205322265625)"/>
<path d="M0 0 C0.66 0.99 1.32 1.98 2 3 C4.49522744 3.44586727 4.49522744 3.44586727 7.44360352 3.35644531 C9.15030968 3.36094696 9.15030968 3.36094696 10.89149475 3.36553955 C12.12484055 3.35319275 13.35818634 3.34084595 14.62890625 3.328125 C15.88887924 3.32625183 17.14885223 3.32437866 18.44700623 3.32244873 C21.11463343 3.31571566 23.78150338 3.30341213 26.44897461 3.28125 C29.87464745 3.25293865 33.30008284 3.24203594 36.72586155 3.2375679 C39.9852394 3.23242155 43.24455966 3.21788137 46.50390625 3.203125 C48.35696129 3.19675018 48.35696129 3.19675018 50.24745178 3.19024658 C51.38210373 3.18063904 52.51675568 3.17103149 53.68579102 3.16113281 C54.69013687 3.15430481 55.69448273 3.14747681 56.72926331 3.14044189 C58.96713251 3.25357018 58.96713251 3.25357018 60 2 C61.51928038 1.92820036 63.04167482 1.91607993 64.5625 1.9375 C65.38878906 1.94652344 66.21507812 1.95554687 67.06640625 1.96484375 C67.70449219 1.97644531 68.34257812 1.98804688 69 2 C58.20021401 7.97162732 44.96056146 7.50278051 32.98828125 7.44604492 C30.26745292 7.43755446 27.54874661 7.46637177 24.828125 7.49804688 C13.05490526 7.54239421 2.36335341 6.06170549 -9 3 C-9 2.67 -9 2.34 -9 2 C-6.03 2 -3.06 2 0 2 C0 1.34 0 0.68 0 0 Z " fill="#853FC7" transform="translate(220,393)"/>
<path d="M0 0 C1.5748133 3.1496266 2.46490442 5.40309031 3.25390625 8.73828125 C3.46853516 9.64126953 3.68316406 10.54425781 3.90429688 11.47460938 C4.12150391 12.41111328 4.33871094 13.34761719 4.5625 14.3125 C4.78357422 15.23740234 5.00464844 16.16230469 5.23242188 17.11523438 C7.01383915 24.68760329 8.12902238 31.87342655 8.09765625 39.68359375 C8.0962413 40.38396255 8.09482635 41.08433136 8.09336853 41.80592346 C8.08782477 44.01649466 8.07528326 46.22696004 8.0625 48.4375 C8.05747771 49.94726415 8.05291609 51.45702991 8.04882812 52.96679688 C8.03787387 56.64456493 8.0206489 60.32227212 8 64 C7.67 64 7.34 64 7 64 C6.97494385 63.13721436 6.9498877 62.27442871 6.92407227 61.38549805 C6.82888615 58.18176231 6.72965556 54.97818463 6.62768555 51.7746582 C6.58439782 50.38864017 6.54271836 49.00257094 6.50268555 47.61645508 C6.44483416 45.62308202 6.38070224 43.62989435 6.31640625 41.63671875 C6.27974854 40.43748779 6.24309082 39.23825684 6.20532227 38.00268555 C6.12266975 34.95005651 6.12266975 34.95005651 5 32 C4.77820215 30.10787263 4.59385985 28.21115528 4.4375 26.3125 C4.35371094 25.31863281 4.26992188 24.32476562 4.18359375 23.30078125 C4.12300781 22.54152344 4.06242187 21.78226563 4 21 C3.34 21 2.68 21 2 21 C2.495 16.545 2.495 16.545 3 12 C2.01 11.67 1.02 11.34 0 11 C0 7.37 0 3.74 0 0 Z " fill="#944FD3" transform="translate(392,202)"/>
<path d="M0 0 C0 1.66666667 0 3.33333333 0 5 C-0.99 5.495 -0.99 5.495 -2 6 C-1.67 6.66 -1.34 7.32 -1 8 C-1.969375 8.2475 -2.93875 8.495 -3.9375 8.75 C-5.4534375 9.36875 -5.4534375 9.36875 -7 10 C-7.96877057 12.03243548 -7.96877057 12.03243548 -8 14 C-9.65 14.33 -11.3 14.66 -13 15 C-12.67 16.65 -12.34 18.3 -12 20 C-13.051875 20.4125 -14.10375 20.825 -15.1875 21.25 C-18.58704057 22.69411378 -21.21424307 24.55191058 -24 27 C-24.66 26.67 -25.32 26.34 -26 26 C-17.42 17.42 -8.84 8.84 0 0 Z " fill="#9447DD" transform="translate(315,262)"/>
<path d="M0 0 C4.59665177 0.62761976 8.41373287 2.47807115 12.5 4.5625 C13.54317383 5.0884375 13.54317383 5.0884375 14.60742188 5.625 C21.30398063 9.05568917 27.67552093 12.92807512 34 17 C33.01 17.495 33.01 17.495 32 18 C29.64018187 17.06421005 27.30368736 16.06652192 25 15 C25 14.34 25 13.68 25 13 C24.01 13 23.02 13 22 13 C22 12.34 22 11.68 22 11 C21.29875 10.731875 20.5975 10.46375 19.875 10.1875 C17 9 17 9 14 7.4375 C11.25638574 6.1228515 8.99029816 5.43974973 6 5 C5.67 5.66 5.34 6.32 5 7 C4.34 5.68 3.68 4.36 3 3 C2.34 3 1.68 3 1 3 C0.67 2.01 0.34 1.02 0 0 Z " fill="#954BDA" transform="translate(303,110)"/>
<path d="M0 0 C0.66 0 1.32 0 2 0 C2 9.24 2 18.48 2 28 C2.66 28.33 3.32 28.66 4 29 C2.68 29.99 1.36 30.98 0 32 C0 21.44 0 10.88 0 0 Z " fill="#230643" transform="translate(211,308)"/>
<path d="M0 0 C1.97226563 -0.00580078 1.97226563 -0.00580078 3.984375 -0.01171875 C10.74154048 -0.00493445 17.3045079 0.19996491 24 1.125 C24 1.455 24 1.785 24 2.125 C22.37585622 2.31977739 20.75063577 2.50559458 19.125 2.6875 C18.22007812 2.79191406 17.31515625 2.89632812 16.3828125 3.00390625 C14 3.125 14 3.125 12 2.125 C9.30106819 2.03824462 6.62830769 2.00942103 3.9296875 2.02734375 C3.13345978 2.0287587 2.33723206 2.03017365 1.51687622 2.03163147 C-1.0304538 2.03723655 -3.57769647 2.04978986 -6.125 2.0625 C-7.85025915 2.06751435 -9.57551967 2.07207737 -11.30078125 2.07617188 C-15.53388791 2.08720763 -19.76692914 2.10447564 -24 2.125 C-24 1.795 -24 1.465 -24 1.125 C-15.98843661 0.01813927 -8.07935865 -0.02376282 0 0 Z " fill="#8E4BD1" transform="translate(250,99.875)"/>
<path d="M0 0 C1.79920898 0.0609082 1.79920898 0.0609082 3.63476562 0.12304688 C6.5732984 0.22841259 9.50320648 0.3757345 12.4375 0.5625 C12.4375 0.8925 12.4375 1.2225 12.4375 1.5625 C4.1875 1.5625 -4.0625 1.5625 -12.5625 1.5625 C-12.8925 2.8825 -13.2225 4.2025 -13.5625 5.5625 C-15.19140625 7.046875 -15.19140625 7.046875 -17.125 8.3125 C-17.76566406 8.74046875 -18.40632812 9.1684375 -19.06640625 9.609375 C-19.80697266 10.08117187 -19.80697266 10.08117187 -20.5625 10.5625 C-21.2225 10.2325 -21.8825 9.9025 -22.5625 9.5625 C-15.86460236 0.81281634 -10.78385585 -0.69823527 0 0 Z " fill="#9049D3" transform="translate(256.5625,307.4375)"/>
<path d="M0 0 C0.66 0.33 1.32 0.66 2 1 C-0.91299442 4.72215954 -2.79369809 6.89684904 -7 9 C-8.6446674 11.46326712 -8.6446674 11.46326712 -10 14 C-10.66 14.66 -11.32 15.32 -12 16 C-14.125 15.625 -14.125 15.625 -16 15 C-10.85228904 9.74723372 -5.66129431 4.69766975 0 0 Z " fill="#964ADD" transform="translate(156,132)"/>
<path d="M0 0 C5.26630019 3.40554079 10.2703193 6.87668862 15 11 C14.01 11.66 13.02 12.32 12 13 C11.67 11.68 11.34 10.36 11 9 C10.01 9 9.02 9 8 9 C8 8.34 8 7.68 8 7 C6.35 7.33 4.7 7.66 3 8 C2.67 6.68 2.34 5.36 2 4 C1.01 4 0.02 4 -1 4 C-0.67 2.68 -0.34 1.36 0 0 Z " fill="#9D49E3" transform="translate(337,128)"/>
<path d="M0 0 C3.84714085 3.37924534 5.93427734 7.14793619 8.25 11.625 C8.61351562 12.305625 8.97703125 12.98625 9.3515625 13.6875 C12 18.72550517 12 18.72550517 12 21 C11.34 21 10.68 21 10 21 C9.319375 19.5459375 9.319375 19.5459375 8.625 18.0625 C7.34213779 14.92920418 7.34213779 14.92920418 5 14 C5 12.35 5 10.7 5 9 C4.34 9 3.68 9 3 9 C2.01 6.03 1.02 3.06 0 0 Z " fill="#934DD8" transform="translate(375,168)"/>
<path d="M0 0 C3.22430866 4.83646298 3.09242903 7.26939984 3 13 C3.66 13 4.32 13 5 13 C5 15.64 5 18.28 5 21 C0.72868035 14.59302052 -0.42104151 7.57874721 0 0 Z " fill="#662EA0" transform="translate(102,275)"/>
<path d="M0 0 C0.66 0.33 1.32 0.66 2 1 C0.88745117 2.48168945 0.88745117 2.48168945 -1 4 C-3.8190918 4.34057617 -3.8190918 4.34057617 -7.19921875 4.29296875 C-8.40771484 4.28330078 -9.61621094 4.27363281 -10.86132812 4.26367188 C-12.12396484 4.23853516 -13.38660156 4.21339844 -14.6875 4.1875 C-16.59885742 4.16719727 -16.59885742 4.16719727 -18.54882812 4.14648438 C-21.69964057 4.11108199 -24.84961045 4.0616979 -28 4 C-28 3.67 -28 3.34 -28 3 C-19.75 3 -11.5 3 -3 3 C-3 2.34 -3 1.68 -3 1 C-2.01 0.67 -1.02 0.34 0 0 Z " fill="#0F0025" transform="translate(271,304)"/>
<path d="M0 0 C0.598125 0.309375 1.19625 0.61875 1.8125 0.9375 C5.35883326 2.66000472 7.25673891 3.16170172 11 2 C11.33 2.66 11.66 3.32 12 4 C10.02 4.99 10.02 4.99 8 6 C8.66 6 9.32 6 10 6 C10.66 7.65 11.32 9.3 12 11 C7.36279281 7.72469104 3.31457218 4.69564393 0 0 Z " fill="#9D50E5" transform="translate(148,359)"/>
<path d="M0 0 C1.2065625 0.0309375 1.2065625 0.0309375 2.4375 0.0625 C-0.21220595 1.82897063 -2.57748099 3.03264997 -5.5 4.25 C-6.35464844 4.61480469 -7.20929688 4.97960937 -8.08984375 5.35546875 C-10.74524477 6.11475403 -12.00429725 5.99437432 -14.5625 5.0625 C-13.2425 4.7325 -11.9225 4.4025 -10.5625 4.0625 C-10.5625 3.4025 -10.5625 2.7425 -10.5625 2.0625 C-8.8609375 1.8459375 -8.8609375 1.8459375 -7.125 1.625 C-3.80350664 1.10055368 -3.09809271 0.07556324 0 0 Z " fill="#8945C6" transform="translate(303.5625,388.9375)"/>
<path d="M0 0 C0.66 0.33 1.32 0.66 2 1 C-0.31 4.63 -2.62 8.26 -5 12 C-5.66 11.67 -6.32 11.34 -7 11 C-7 9.68 -7 8.36 -7 7 C-5.35 6.34 -3.7 5.68 -2 5 C-2 4.01 -2 3.02 -2 2 C-1.34 2 -0.68 2 0 2 C0 1.34 0 0.68 0 0 Z " fill="#9E4BE4" transform="translate(379,323)"/>
<path d="M0 0 C0.33 0 0.66 0 1 0 C1.15547135 6.37432541 0.6603741 12.14717698 -2 18 C-2.33 18 -2.66 18 -3 18 C-3.36517527 11.42684522 -2.13619737 6.20514474 0 0 Z " fill="#5F2C9B" transform="translate(105,207)"/>
<path d="M0 0 C3.63 0.66 7.26 1.32 11 2 C10.01 2.495 10.01 2.495 9 3 C9 3.66 9 4.32 9 5 C10.32 5.33 11.64 5.66 13 6 C13 6.66 13 7.32 13 8 C8.27626146 6.37621488 4.05818166 3.89006982 0 1 C0 0.67 0 0.34 0 0 Z " fill="#964DE0" transform="translate(168,375)"/>
<path d="M0 0 C0.66 0 1.32 0 2 0 C0.59023295 3.03852705 -1.08870228 5.5939595 -3.125 8.25 C-3.66382813 8.95640625 -4.20265625 9.6628125 -4.7578125 10.390625 C-5.16773438 10.92171875 -5.57765625 11.4528125 -6 12 C-6.625 10.1875 -6.625 10.1875 -7 8 C-6.34 7.01 -5.68 6.02 -5 5 C-4.01 5 -3.02 5 -2 5 C-1.34 3.35 -0.68 1.7 0 0 Z " fill="#9A4DDF" transform="translate(371,335)"/>
<path d="M0 0 C1.98 0.99 1.98 0.99 4 2 C4 2.66 4 3.32 4 4 C4.66 4 5.32 4 6 4 C6 5.32 6 6.64 6 8 C6.66 8 7.32 8 8 8 C8 9.65 8 11.3 8 13 C4.48901975 8.98745115 2.23462006 4.79016959 0 0 Z " fill="#9A4FDD" transform="translate(119,323)"/>
<path d="M0 0 C3.3702985 1.12343283 4.32859216 2.17895994 6.625 4.8125 C7.54152344 5.84310547 7.54152344 5.84310547 8.4765625 6.89453125 C9.99653007 8.99520438 10.57890154 10.46771872 11 13 C9.83593677 11.83593677 8.67245135 10.67129061 7.51171875 9.50390625 C6.46205398 8.4596661 5.40128152 7.42652024 4.33203125 6.40234375 C2.85185191 4.97138652 1.42232322 3.48847779 0 2 C0 1.34 0 0.68 0 0 Z " fill="#9E54DF" transform="translate(133,343)"/>
<path d="M0 0 C0.99 0.33 1.98 0.66 3 1 C4.0625 3.8125 4.0625 3.8125 5 7 C5.5878125 8.0828125 5.5878125 8.0828125 6.1875 9.1875 C7 11 7 11 6 14 C4.9923048 12.2335343 3.99408286 10.46166177 3 8.6875 C2.443125 7.70136719 1.88625 6.71523438 1.3125 5.69921875 C0 3 0 3 0 0 Z " fill="#944CD9" transform="translate(112,308)"/>
<path d="M0 0 C0.66 1.32 1.32 2.64 2 4 C0.8125 5.5 0.8125 5.5 -1 7 C-3.6875 7.1875 -3.6875 7.1875 -6 7 C-4.02 4.69 -2.04 2.38 0 0 Z " fill="#9844E7" transform="translate(285,292)"/>
<path d="M0 0 C1.14266516 3.35897545 0.85911331 5.30450352 -0.3125 8.625 C-0.70888672 9.78902344 -0.70888672 9.78902344 -1.11328125 10.9765625 C-2 13 -2 13 -4 15 C-4.59720137 9.17728663 -2.528243 5.0790596 0 0 Z " fill="#8442C2" transform="translate(110,194)"/>
<path d="M0 0 C1 2 1 2 0.6171875 3.91015625 C-0.12690183 6.06801531 -0.85000413 8.02547879 -2 10 C-4.6875 11 -4.6875 11 -7 11 C-5.22054913 6.95579349 -2.60470327 3.53921513 0 0 Z " fill="#964DDB" transform="translate(133,155)"/>
<path d="M0 0 C0.66 0.33 1.32 0.66 2 1 C2 1.66 2 2.32 2 3 C0.02 3.33 -1.96 3.66 -4 4 C-2.68 2.68 -1.36 1.36 0 0 Z M-7 4 C-6.01 4.33 -5.02 4.66 -4 5 C-6.97 7.475 -6.97 7.475 -10 10 C-10.66 9.67 -11.32 9.34 -12 9 C-10.35 7.35 -8.7 5.7 -7 4 Z " fill="#9945E7" transform="translate(301,279)"/>
<path d="M0 0 C-0.99 0.33 -1.98 0.66 -3 1 C-3 1.66 -3 2.32 -3 3 C-7.62 3.33 -12.24 3.66 -17 4 C-11.51937878 1.25968939 -6.18879033 -0.3867994 0 0 Z " fill="#914AD1" transform="translate(226,102)"/>
<path d="M0 0 C1.32 1.65 2.64 3.3 4 5 C2.39504433 4.88557539 0.79101881 4.75805306 -0.8125 4.625 C-1.70582031 4.55539062 -2.59914062 4.48578125 -3.51953125 4.4140625 C-6 4 -6 4 -9 2 C-6.03 2 -3.06 2 0 2 C0 1.34 0 0.68 0 0 Z " fill="#7436B8" transform="translate(220,393)"/>
<path d="M0 0 C2.64752004 2.57784846 4.94432065 4.91648098 7 8 C5.35 8 3.7 8 2 8 C0.23537317 4.91190305 0 3.76687864 0 0 Z " fill="#964CE2" transform="translate(361,149)"/>
<path d="M0 0 C1.23556641 0.01740234 1.23556641 0.01740234 2.49609375 0.03515625 C3.32238281 0.04417969 4.14867187 0.05320312 5 0.0625 C5.63808594 0.07410156 6.27617187 0.08570313 6.93359375 0.09765625 C2.063007 2.61692526 -1.55693916 3.20160846 -7.06640625 3.09765625 C-6.42703125 2.78828125 -5.78765625 2.47890625 -5.12890625 2.16015625 C-1.03016727 0.04868465 -1.03016727 0.04868465 0 0 Z " fill="#7337B2" transform="translate(282.06640625,394.90234375)"/>
<path d="M0 0 C1.98 0.66 3.96 1.32 6 2 C3.82575883 4.50037734 2.26954202 5.43628586 -1 6 C-1.042721 4.33388095 -1.04063832 2.66617115 -1 1 C-0.67 0.67 -0.34 0.34 0 0 Z " fill="#9E48E9" transform="translate(320,377)"/>
<path d="M0 0 C1.45047396 2.90094791 0.45356803 4.55972596 -0.4375 7.625 C-0.86869141 9.12933594 -0.86869141 9.12933594 -1.30859375 10.6640625 C-1.53675781 11.43492187 -1.76492188 12.20578125 -2 13 C-2.33 13 -2.66 13 -3 13 C-3.33 10.36 -3.66 7.72 -4 5 C-3.34 4.67 -2.68 4.34 -2 4 C-0.86649466 1.98330173 -0.86649466 1.98330173 0 0 Z " fill="#9749DA" transform="translate(396,281)"/>
<path d="M0 0 C-0.5 1.875 -0.5 1.875 -2 4 C-4.65177645 4.98494554 -7.20547307 5.45912382 -10 6 C-7.35570758 3.077361 -4.105808 0 0 0 Z " fill="#964CDA" transform="translate(176,120)"/>
<path d="M0 0 C0.33 0 0.66 0 1 0 C1.3125 2.6875 1.3125 2.6875 1 6 C-1.5 8.875 -1.5 8.875 -4 11 C-3.52269162 9.5410574 -3.04308958 8.08286504 -2.5625 6.625 C-2.29566406 5.81289062 -2.02882813 5.00078125 -1.75390625 4.1640625 C-1 2 -1 2 0 0 Z " fill="#964CD7" transform="translate(115,183)"/>
<path d="M0 0 C1.43861294 0.08746284 2.87597508 0.19565348 4.3125 0.3125 C5.11300781 0.37050781 5.91351563 0.42851562 6.73828125 0.48828125 C9.36272334 1.08206694 10.30820672 1.95780294 12 4 C3.42857143 3.28571429 3.42857143 3.28571429 0 0 Z " fill="#7939AB" transform="translate(199,391)"/>
<path d="M0 0 C1.65 0 3.3 0 5 0 C5 1.32 5 2.64 5 4 C5.66 4.33 6.32 4.66 7 5 C6.34 5.66 5.68 6.32 5 7 C3.35 4.69 1.7 2.38 0 0 Z " fill="#9C4DE5" transform="translate(127,336)"/>
<path d="M0 0 C0 2 0 4 0 6 C-2.31 6.66 -4.62 7.32 -7 8 C-6.02133662 6.85373678 -5.04205413 5.70800212 -4.0625 4.5625 C-3.51722656 3.92441406 -2.97195313 3.28632813 -2.41015625 2.62890625 C-1.63204305 1.73008851 -0.84063472 0.84063472 0 0 Z " fill="#9046D7" transform="translate(323,254)"/>
<path d="M0 0 C0.99 0.33 1.98 0.66 3 1 C3 5.29 3 9.58 3 14 C2.67 14 2.34 14 2 14 C1.67 10.37 1.34 6.74 1 3 C0.34 3 -0.32 3 -1 3 C-0.67 2.01 -0.34 1.02 0 0 Z " fill="#9C49E5" transform="translate(395,220)"/>
<path d="M0 0 C0.33 0 0.66 0 1 0 C1.125 5.75 1.125 5.75 0 8 C-0.99 8 -1.98 8 -3 8 C-1.125 2.25 -1.125 2.25 0 0 Z " fill="#934CD6" transform="translate(119,175)"/>
<path d="M0 0 C0.99 0.33 1.98 0.66 3 1 C-0.465 3.97 -0.465 3.97 -4 7 C-3.04065919 3.16263678 -2.76390737 2.40339772 0 0 Z " fill="#9047D6" transform="translate(202,159)"/>
</svg>
