<?xml version="1.0" encoding="UTF-8"?>
<svg version="1.1" xmlns="http://www.w3.org/2000/svg" width="512" height="512">
<path d="M0 0 C1.01790619 0.00215515 2.03581238 0.0043103 3.08456421 0.00653076 C17.69363523 0.05620146 32.02575853 0.30709809 46.375 3.3125 C47.34985352 3.51117676 48.32470703 3.70985352 49.32910156 3.91455078 C97.7109774 14.03517194 141.69928269 35.9516877 177.375 70.3125 C178.3640332 71.26068604 178.3640332 71.26068604 179.37304688 72.22802734 C188.86130305 81.37247479 197.6012044 90.66984009 205.375 101.3125 C206.23306152 102.46355017 207.09113451 103.61459177 207.94921875 104.765625 C213.98677396 112.95525981 219.36957302 121.45788276 224.375 130.3125 C224.7771875 131.01971191 225.179375 131.72692383 225.59375 132.45556641 C238.6191741 155.59095836 247.36801461 180.76212409 252.6875 206.75 C252.83485596 207.46889404 252.98221191 208.18778809 253.1340332 208.9284668 C256.10789088 224.57475609 256.74800362 240.04818046 256.6875 255.9375 C256.68534485 256.95540619 256.6831897 257.97331238 256.68096924 259.02206421 C256.63129854 273.63113523 256.38040191 287.96325853 253.375 302.3125 C253.07698486 303.77478027 253.07698486 303.77478027 252.77294922 305.26660156 C242.65232806 353.6484774 220.7358123 397.63678269 186.375 433.3125 C185.74287598 433.97185547 185.11075195 434.63121094 184.45947266 435.31054688 C175.31502521 444.79880305 166.01765991 453.5387044 155.375 461.3125 C154.22394983 462.17056152 153.07290823 463.02863451 151.921875 463.88671875 C143.73224019 469.92427396 135.22961724 475.30707302 126.375 480.3125 C125.66778809 480.7146875 124.96057617 481.116875 124.23193359 481.53125 C101.09654164 494.5566741 75.92537591 503.30551461 49.9375 508.625 C49.21860596 508.77235596 48.49971191 508.91971191 47.7590332 509.0715332 C33.08339502 511.86090125 18.55831162 512.66142619 3.64770508 512.62817383 C0.70811513 512.6250221 -2.2304558 512.64854926 -5.16992188 512.67382812 C-18.54306192 512.71848737 -31.43916711 511.51301542 -44.625 509.3125 C-46.33055054 509.03031616 -46.33055054 509.03031616 -48.07055664 508.74243164 C-91.33802759 500.97044532 -132.38793216 480.98345309 -165.625 452.3125 C-166.37007813 451.67828125 -167.11515625 451.0440625 -167.8828125 450.390625 C-181.38779833 438.57948485 -194.05918743 425.82889772 -204.625 411.3125 C-205.48149066 410.16255169 -206.33826433 409.01281411 -207.1953125 407.86328125 C-213.23534209 399.67315742 -218.61867614 391.16870382 -223.625 382.3125 C-224.0271875 381.60528809 -224.429375 380.89807617 -224.84375 380.16943359 C-237.8691741 357.03404164 -246.61801461 331.86287591 -251.9375 305.875 C-252.08485596 305.15610596 -252.23221191 304.43721191 -252.3840332 303.6965332 C-255.35789088 288.05024391 -255.99800362 272.57681954 -255.9375 256.6875 C-255.93534485 255.66959381 -255.9331897 254.65168762 -255.93096924 253.60293579 C-255.88129854 238.99386477 -255.63040191 224.66174147 -252.625 210.3125 C-252.42632324 209.33764648 -252.22764648 208.36279297 -252.02294922 207.35839844 C-241.90232806 158.9765226 -219.9858123 114.98821731 -185.625 79.3125 C-184.99287598 78.65314453 -184.36075195 77.99378906 -183.70947266 77.31445312 C-174.56502521 67.82619695 -165.26765991 59.0862956 -154.625 51.3125 C-153.47394983 50.45443848 -152.32290823 49.59636549 -151.171875 48.73828125 C-142.98224019 42.70072604 -134.47961724 37.31792698 -125.625 32.3125 C-124.91778809 31.9103125 -124.21057617 31.508125 -123.48193359 31.09375 C-100.34654164 18.0683259 -75.17537591 9.31948539 -49.1875 4 C-48.46860596 3.85264404 -47.74971191 3.70528809 -47.0090332 3.5534668 C-31.36274391 0.57960912 -15.88931954 -0.06050362 0 0 Z " fill="#D80027" transform="translate(255.625,-0.3125)"/>
<path d="M0 0 C72.93 0 145.86 0 221 0 C220.32736446 8.74426197 219.52615502 16.4422167 217.4375 24.8125 C217.17428955 25.88072998 216.9110791 26.94895996 216.63989258 28.04956055 C205.53466182 71.85620639 184.39175809 111.40695541 153 144 C152.36787598 144.65935547 151.73575195 145.31871094 151.08447266 145.99804688 C141.94002521 155.48630305 132.64265991 164.2262044 122 172 C120.84894983 172.85806152 119.69790823 173.71613451 118.546875 174.57421875 C110.35724019 180.61177396 101.85461724 185.99457302 93 191 C91.93918213 191.60328125 91.93918213 191.60328125 90.85693359 192.21875 C67.51542885 205.36021737 42.1507046 214.07832331 15.9375 219.4375 C15.13481689 219.60161377 14.33213379 219.76572754 13.50512695 219.93481445 C8.77123717 220.83657984 4.99251037 221 0 221 C0 148.07 0 75.14 0 0 Z " fill="#EEECED" transform="translate(289,289)"/>
<path d="M0 0 C8.74426197 0.67263554 16.4422167 1.47384498 24.8125 3.5625 C26.41484497 3.95731567 26.41484497 3.95731567 28.04956055 4.36010742 C71.85620639 15.46533818 111.40695541 36.60824191 144 68 C144.9890332 68.94818604 144.9890332 68.94818604 145.99804688 69.91552734 C155.48630305 79.05997479 164.2262044 88.35734009 172 99 C172.85806152 100.15105017 173.71613451 101.30209177 174.57421875 102.453125 C180.61177396 110.64275981 185.99457302 119.14538276 191 128 C191.60328125 129.06081787 191.60328125 129.06081787 192.21875 130.14306641 C205.36021737 153.48457115 214.07832331 178.8492954 219.4375 205.0625 C219.60161377 205.86518311 219.76572754 206.66786621 219.93481445 207.49487305 C220.83657984 212.22876283 221 216.00748963 221 221 C148.07 221 75.14 221 0 221 C0 148.07 0 75.14 0 0 Z " fill="#EEECED" transform="translate(289,2)"/>
<path d="M0 0 C0 72.93 0 145.86 0 221 C-72.93 221 -145.86 221 -221 221 C-220.32736446 212.25573803 -219.52615502 204.5577833 -217.4375 196.1875 C-217.04268433 194.58515503 -217.04268433 194.58515503 -216.63989258 192.95043945 C-205.53466182 149.14379361 -184.39175809 109.59304459 -153 77 C-152.36787598 76.34064453 -151.73575195 75.68128906 -151.08447266 75.00195312 C-141.94002521 65.51369695 -132.64265991 56.7737956 -122 49 C-120.84894983 48.14193848 -119.69790823 47.28386549 -118.546875 46.42578125 C-110.35724019 40.38822604 -101.85461724 35.00542698 -93 30 C-92.29278809 29.5978125 -91.58557617 29.195625 -90.85693359 28.78125 C-67.51542885 15.63978263 -42.1507046 6.92167669 -15.9375 1.5625 C-15.13481689 1.39838623 -14.33213379 1.23427246 -13.50512695 1.06518555 C-8.77123717 0.16342016 -4.99251037 0 0 0 Z " fill="#EEECED" transform="translate(223,2)"/>
<path d="M0 0 C72.93 0 145.86 0 221 0 C221 72.93 221 145.86 221 221 C168.84582238 221 113.62499325 188.27510064 77 153 C76.34064453 152.36787598 75.68128906 151.73575195 75.00195312 151.08447266 C65.51369695 141.94002521 56.7737956 132.64265991 49 122 C48.14193848 120.84894983 47.28386549 119.69790823 46.42578125 118.546875 C40.38822604 110.35724019 35.00542698 101.85461724 30 93 C29.5978125 92.29278809 29.195625 91.58557617 28.78125 90.85693359 C15.63978263 67.51542885 6.92167669 42.1507046 1.5625 15.9375 C1.39838623 15.13481689 1.23427246 14.33213379 1.06518555 13.50512695 C0.16342016 8.77123717 0 4.99251037 0 0 Z " fill="#EEECED" transform="translate(2,289)"/>
<path d="M0 0 C43.56 0 87.12 0 132 0 C130.87270736 9.01834109 130.87270736 9.01834109 129.6875 12.453125 C129.42163086 13.2265625 129.15576172 14 128.88183594 14.796875 C128.59083008 15.60640625 128.29982422 16.4159375 128 17.25 C127.5364209 18.549375 127.5364209 18.549375 127.06347656 19.875 C118.2682474 44.00304193 106.45991876 70.69129251 88 89 C76.52319774 77.54652425 65.04923493 66.09021288 53.57867432 54.63048649 C48.25302242 49.30999808 42.92643409 43.99045345 37.59765625 38.6730957 C32.95487305 34.04025774 28.31383095 29.405684 23.67490005 24.76898855 C21.21696366 22.31235953 18.75814479 19.85662823 16.29724121 17.40297127 C13.5548282 14.66856894 10.81630284 11.93029408 8.078125 9.19165039 C7.25526001 8.37238068 6.43239502 7.55311096 5.58459473 6.70901489 C4.84414917 5.96719467 4.10370361 5.22537445 3.34082031 4.46107483 C2.69187805 3.81305436 2.04293579 3.16503389 1.37432861 2.49737644 C0 1 0 1 0 0 Z " fill="#0153B4" transform="translate(371,323)"/>
<path d="M0 0 C43.56 0 87.12 0 132 0 C125.25 7.875 125.25 7.875 122.16543579 10.95481873 C121.46722717 11.65440201 120.76901855 12.35398529 120.0496521 13.07476807 C118.93186874 14.18715851 118.93186874 14.18715851 117.79150391 15.32202148 C116.99083496 16.12283646 116.19016602 16.92365143 115.36523438 17.74873352 C112.73804239 20.37523304 110.10733417 22.99818016 107.4765625 25.62109375 C105.6464591 27.44933061 103.81657745 29.27778947 101.98690796 31.10646057 C97.67528872 35.4146616 93.36145175 39.72063013 89.04651296 44.02550608 C84.13032954 48.93047541 79.21701744 53.83831671 74.30393338 58.74639022 C64.20579313 68.83410455 54.10408808 78.91824333 44 89 C41.15604962 86.18736585 38.47490475 83.52945363 36.23828125 80.20703125 C35.527323 79.15249756 35.527323 79.15249756 34.80200195 78.07666016 C34.06469849 76.95590088 34.06469849 76.95590088 33.3125 75.8125 C32.79067139 75.02149902 32.26884277 74.23049805 31.73120117 73.41552734 C18.84905147 53.6350932 0 24.17636792 0 0 Z " fill="#0153B4" transform="translate(9,323)"/>
<path d="M0 0 C2.84395038 2.81263415 5.52509525 5.47054637 7.76171875 8.79296875 C8.23569092 9.49599121 8.70966309 10.19901367 9.19799805 10.92333984 C9.68953369 11.6705127 10.18106934 12.41768555 10.6875 13.1875 C11.20932861 13.97850098 11.73115723 14.76950195 12.26879883 15.58447266 C25.15094853 35.3649068 44 64.82363208 44 89 C0.44 89 -43.12 89 -88 89 C-81.25 81.125 -81.25 81.125 -78.16543579 78.04518127 C-77.46722717 77.34559799 -76.76901855 76.64601471 -76.0496521 75.92523193 C-75.3044632 75.18363831 -74.55927429 74.44204468 -73.79150391 73.67797852 C-72.59050049 72.47675606 -72.59050049 72.47675606 -71.36523438 71.25126648 C-68.73804239 68.62476696 -66.10733417 66.00181984 -63.4765625 63.37890625 C-61.6464591 61.55066939 -59.81657745 59.72221053 -57.98690796 57.89353943 C-53.67528872 53.5853384 -49.36145175 49.27936987 -45.04651296 44.97449392 C-40.13032954 40.06952459 -35.21701744 35.16168329 -30.30393338 30.25360978 C-20.20579313 20.16589545 -10.10408808 10.08175667 0 0 Z " fill="#0153B4" transform="translate(459,100)"/>
<path d="M0 0 C5.37649508 4.48895176 10.37766696 9.23477648 15.32202148 14.19262695 C16.52324394 15.39122093 16.52324394 15.39122093 17.74873352 16.61402893 C20.37536226 19.23628231 22.99834732 21.86214527 25.62109375 24.48828125 C27.44940313 26.31591676 29.27786092 28.14340381 31.10646057 29.9707489 C34.92668688 33.78950444 38.7451545 37.61000594 42.56225586 41.43188477 C46.97926699 45.8543602 51.39990059 50.27319019 55.82238716 54.69018966 C60.08174178 58.94447082 64.33829323 63.20154387 68.5936451 67.45982933 C70.40431266 69.27116599 72.2157289 71.08175456 74.02789116 72.89159584 C76.54892709 75.41010907 79.06676397 77.9317762 81.58374023 80.4543457 C82.33950348 81.20808472 83.09526672 81.96182373 83.87393188 82.73840332 C84.5537764 83.42106766 85.23362091 84.10373199 85.93406677 84.80708313 C86.52967124 85.40306462 87.12527571 85.99904612 87.73892879 86.61308765 C89 88 89 88 89 89 C45.44 89 1.88 89 -43 89 C-41.87270736 79.98165891 -41.87270736 79.98165891 -40.6875 76.546875 C-40.42163086 75.7734375 -40.15576172 75 -39.88183594 74.203125 C-39.59083008 73.39359375 -39.29982422 72.5840625 -39 71.75 C-38.69094727 70.88375 -38.38189453 70.0175 -38.06347656 69.125 C-29.04686159 44.3896281 -16.71633509 20.43969511 0 0 Z " fill="#0153B4" transform="translate(52,100)"/>
<path d="M0 0 C9.01834109 1.12729264 9.01834109 1.12729264 12.453125 2.3125 C13.2265625 2.57836914 14 2.84423828 14.796875 3.11816406 C15.60640625 3.40916992 16.4159375 3.70017578 17.25 4 C18.549375 4.4635791 18.549375 4.4635791 19.875 4.93652344 C44.00304193 13.7317526 70.69129251 25.54008124 89 44 C77.54652425 55.47680226 66.09021288 66.95076507 54.63048649 78.42132568 C49.30999808 83.74697758 43.99045345 89.07356591 38.6730957 94.40234375 C34.04025774 99.04512695 29.405684 103.68616905 24.76898855 108.32509995 C22.31235953 110.78303634 19.85662823 113.24185521 17.40297127 115.70275879 C14.66856894 118.4451718 11.93029408 121.18369716 9.19165039 123.921875 C8.37238068 124.74473999 7.55311096 125.56760498 6.70901489 126.41540527 C5.59628456 127.52607361 5.59628456 127.52607361 4.46107483 128.65917969 C3.81305436 129.30812195 3.16503389 129.95706421 2.49737644 130.62567139 C1 132 1 132 0 132 C0 88.44 0 44.88 0 0 Z " fill="#0153B4" transform="translate(323,9)"/>
<path d="M0 0 C0 43.56 0 87.12 0 132 C-7.875 125.25 -7.875 125.25 -10.95481873 122.16543579 C-11.65440201 121.46722717 -12.35398529 120.76901855 -13.07476807 120.0496521 C-14.18715851 118.93186874 -14.18715851 118.93186874 -15.32202148 117.79150391 C-16.12283646 116.99083496 -16.92365143 116.19016602 -17.74873352 115.36523438 C-20.37523304 112.73804239 -22.99818016 110.10733417 -25.62109375 107.4765625 C-27.44933061 105.6464591 -29.27778947 103.81657745 -31.10646057 101.98690796 C-35.4146616 97.67528872 -39.72063013 93.36145175 -44.02550608 89.04651296 C-48.93047541 84.13032954 -53.83831671 79.21701744 -58.74639022 74.30393338 C-68.83410455 64.20579313 -78.91824333 54.10408808 -89 44 C-86.18736585 41.15604962 -83.52945363 38.47490475 -80.20703125 36.23828125 C-79.50400879 35.76430908 -78.80098633 35.29033691 -78.07666016 34.80200195 C-77.3294873 34.31046631 -76.58231445 33.81893066 -75.8125 33.3125 C-74.62599854 32.52975708 -74.62599854 32.52975708 -73.41552734 31.73120117 C-53.6350932 18.84905147 -24.17636792 0 0 0 Z " fill="#0153B4" transform="translate(189,9)"/>
<path d="M0 0 C7.876596 6.751368 7.876596 6.751368 10.92358398 9.76968384 C11.61619827 10.45369766 12.30881256 11.13771149 13.02241516 11.842453 C13.7562291 12.57200699 14.49004303 13.30156097 15.24609375 14.05322266 C16.03876144 14.83771286 16.83142914 15.62220306 17.64811707 16.4304657 C20.2476013 19.0053043 22.84307866 21.584123 25.4375 24.1640625 C26.32596619 25.04720501 27.21443237 25.93034752 28.12982178 26.84025192 C31.85852377 30.54778703 35.58620864 34.25633528 39.30999756 37.96880531 C44.63396208 43.2764716 49.96629474 48.57540811 55.31039524 53.86280215 C59.53117161 58.04031073 63.73830531 62.23138041 67.94070435 66.42737961 C69.72914221 68.20907975 71.52185161 69.98650254 73.31881714 71.75960159 C75.82068642 74.2300895 78.30657255 76.71562746 80.7890625 79.20556641 C81.91407417 80.30597008 81.91407417 80.30597008 83.06181335 81.42860413 C84.0668969 82.44616539 84.0668969 82.44616539 85.09228516 83.48428345 C85.68143707 84.07012522 86.27058899 84.65596699 86.87759399 85.25956154 C88 87 88 87 87.79145813 89.12094688 C86.70146548 91.70877057 85.27439399 92.56074689 82.94140625 94.1015625 C82.0898999 94.66915283 81.23839355 95.23674316 80.36108398 95.8215332 C79.43755127 96.41667725 78.51401855 97.01182129 77.5625 97.625 C76.6125415 98.24528076 75.66258301 98.86556152 74.68383789 99.50463867 C24.37290836 132 24.37290836 132 0 132 C0 88.44 0 44.88 0 0 Z " fill="#0153B4" transform="translate(323,371)"/>
<path d="M0 0 C0 43.56 0 87.12 0 132 C-6.38351638 131.20206045 -11.11562654 130.22438682 -17 128.125 C-18.2828186 127.66915527 -18.2828186 127.66915527 -19.59155273 127.20410156 C-41.31551037 119.26331086 -61.67318917 108.63363732 -80.6875 95.5 C-81.42540771 94.9954126 -82.16331543 94.4908252 -82.92358398 93.97094727 C-84.67469587 92.72636407 -86.34665066 91.37179305 -88 90 C-88 87 -88 87 -86.64408207 85.27214527 C-86.00381297 84.63334273 -85.36354387 83.9945402 -84.70387268 83.33638 C-83.97328644 82.60022461 -83.2427002 81.86406921 -82.48997498 81.10560608 C-81.67803177 80.30287766 -80.86608856 79.50014923 -80.02954102 78.6730957 C-79.18258667 77.82409698 -78.33563232 76.97509827 -77.4630127 76.10037231 C-75.13580304 73.77066553 -72.80208709 71.44786211 -70.46510053 69.12798715 C-68.02481108 66.70270888 -65.59260372 64.26935169 -63.15940857 61.83695984 C-59.07277959 57.75402529 -54.98055096 53.67677431 -50.88452148 49.60327148 C-45.61994441 44.36758799 -40.3646824 39.12265698 -35.11230564 33.87473774 C-30.60457206 29.37097825 -26.09258205 24.87148997 -21.57990527 20.37268424 C-20.12544176 18.92232654 -18.67157036 17.47137726 -17.21777534 16.0203495 C-14.51494713 13.32330604 -11.80769991 10.63072629 -9.09985352 7.9387207 C-8.28993454 7.12991959 -7.48001556 6.32111847 -6.64555359 5.48780823 C-5.91214752 4.7601123 -5.17874146 4.03241638 -4.42311096 3.28266907 C-3.78246484 2.64499761 -3.14181871 2.00732615 -2.48175907 1.35033131 C-1 0 -1 0 0 0 Z " fill="#0153B4" transform="translate(189,371)"/>
<path d="M0 0 C2.89852365 1.31307372 4.98277217 2.72684638 7.234375 4.96875 C7.80800781 5.53980469 8.38164063 6.11085938 8.97265625 6.69921875 C9.55917969 7.29347656 10.14570312 7.88773437 10.75 8.5 C11.35199219 9.09425781 11.95398438 9.68851563 12.57421875 10.30078125 C13.14269531 10.87183594 13.71117188 11.44289063 14.296875 12.03125 C14.81604492 12.55267578 15.33521484 13.07410156 15.87011719 13.61132812 C17 15 17 15 17 17 C17.86588934 17.37874645 17.86588934 17.37874645 18.74927139 17.76514435 C21.27919588 19.15318 22.97060772 20.71889669 25.01165771 22.75769043 C25.7996727 23.54006577 26.58768768 24.3224411 27.39958191 25.12852478 C28.25481949 25.98781082 29.11005707 26.84709686 29.99121094 27.73242188 C30.89887711 28.6365834 31.80654327 29.54074493 32.74171448 30.4723053 C35.22749863 32.94897905 37.70692375 35.43192859 40.18498135 37.91633034 C42.77781909 40.51423196 45.37553328 43.10725002 47.97247314 45.7010498 C52.33046891 50.05540837 56.68423332 54.41396437 61.03564453 58.77490234 C66.07158259 63.82173813 71.11470377 68.86131 76.16159034 73.89719534 C80.49228061 78.21882202 84.81907666 82.54431854 89.14261651 86.87309885 C91.72602413 89.45962954 94.31077601 92.04477791 96.89904022 94.62644958 C99.78055458 97.50113614 102.65385891 100.38389233 105.52636719 103.26757812 C106.38970169 104.12686417 107.25303619 104.98615021 108.14253235 105.87147522 C108.91926804 106.65385056 109.69600372 107.43622589 110.49627686 108.24230957 C111.17689556 108.92368233 111.85751427 109.60505508 112.55875778 110.3070755 C114 112 114 112 114 114 C87.32979595 117.64920945 87.32979595 117.64920945 76.46365356 110.23461914 C70.58122388 105.43177836 65.39323942 99.9990767 60.26966596 94.41287804 C57.69167978 91.63782437 55.0223161 88.95328253 52.36253357 86.25695801 C47.36497193 81.16395545 42.4515485 75.99753116 37.56529802 70.79788828 C31.98843687 64.87154643 26.3206374 59.03556243 20.64447892 53.20451069 C8.99417102 41.2322663 -2.54009033 29.15468639 -14 17 C-12.73932921 13.7063418 -11.72543769 11.35122159 -9.1796875 8.88671875 C-8.64472656 8.36142578 -8.10976562 7.83613281 -7.55859375 7.29492188 C-7.00300781 6.76447266 -6.44742188 6.23402344 -5.875 5.6875 C-5.31167969 5.13771484 -4.74835938 4.58792969 -4.16796875 4.02148438 C-2.78537942 2.67404562 -1.39359084 1.33605727 0 0 Z " fill="#D8052B" transform="translate(74,75)"/>
<path d="M0 0 C3.64920945 26.67020405 3.64920945 26.67020405 -3.76538086 37.53634644 C-8.56822164 43.41877612 -14.0009233 48.60676058 -19.58712196 53.73033404 C-22.36217563 56.30832022 -25.04671747 58.9776839 -27.74304199 61.63746643 C-32.83604455 66.63502807 -38.00246884 71.5484515 -43.20211172 76.43470198 C-49.12845357 82.01156313 -54.96443757 87.6793626 -60.79548931 93.35552108 C-72.7677337 105.00582898 -84.84531361 116.54009033 -97 128 C-100.25643784 126.7508792 -102.64353509 125.73519513 -105.11328125 123.25 C-105.9012207 122.46109375 -105.9012207 122.46109375 -106.70507812 121.65625 C-107.23552734 121.1096875 -107.76597656 120.563125 -108.3125 120 C-108.86228516 119.4534375 -109.41207031 118.906875 -109.97851562 118.34375 C-114 114.26731366 -114 114.26731366 -114 112 C-112.62023067 110.64023495 -112.62023067 110.64023495 -110.65818787 109.02708435 C-105.31788543 104.48098887 -100.4113452 99.5362712 -95.46899414 94.56665039 C-94.43519129 93.53092439 -93.40115759 92.49542877 -92.36691284 91.46014404 C-90.15621395 89.24630519 -87.94707272 87.03092818 -85.73915291 84.8143177 C-82.25029968 81.31186869 -78.75756928 77.81330315 -75.26426697 74.31529236 C-67.86069853 66.90066573 -60.46139758 59.48178713 -53.0625 52.0625 C-45.04950811 44.0274786 -37.03577443 35.99320497 -29.01718611 27.96376795 C-25.54126662 24.48285545 -22.06780173 20.99951725 -18.59617341 17.51432526 C-16.44530582 15.35603049 -14.29239729 13.1997807 -12.1389122 11.0440979 C-11.13704452 10.04034919 -10.13604604 9.03573208 -9.13595772 8.03021049 C-7.77713198 6.66423157 -6.41497961 5.30156419 -5.05262756 3.93910217 C-3.90813692 2.79128061 -3.90813692 2.79128061 -2.74052525 1.62027073 C-1 0 -1 0 0 0 Z " fill="#D80128" transform="translate(189,324)"/>
<path d="M0 0 C26.67020405 -3.64920945 26.67020405 -3.64920945 37.53634644 3.76538086 C43.41877612 8.56822164 48.60676058 14.0009233 53.73033404 19.58712196 C56.30832022 22.36217563 58.9776839 25.04671747 61.63746643 27.74304199 C66.63502807 32.83604455 71.5484515 38.00246884 76.43470198 43.20211172 C82.01156313 49.12845357 87.6793626 54.96443757 93.35552108 60.79548931 C105.00582898 72.7677337 116.54009033 84.84531361 128 97 C126.7508792 100.25643784 125.73519513 102.64353509 123.25 105.11328125 C122.7240625 105.63857422 122.198125 106.16386719 121.65625 106.70507812 C121.1096875 107.23552734 120.563125 107.76597656 120 108.3125 C119.4534375 108.86228516 118.906875 109.41207031 118.34375 109.97851562 C114.26731366 114 114.26731366 114 112 114 C110.64023495 112.62023067 110.64023495 112.62023067 109.02708435 110.65818787 C104.48098887 105.31788543 99.5362712 100.4113452 94.56665039 95.46899414 C93.53092439 94.43519129 92.49542877 93.40115759 91.46014404 92.36691284 C89.24630519 90.15621395 87.03092818 87.94707272 84.8143177 85.73915291 C81.31186869 82.25029968 77.81330315 78.75756928 74.31529236 75.26426697 C66.90066573 67.86069853 59.48178713 60.46139758 52.0625 53.0625 C44.0274786 45.04950811 35.99320497 37.03577443 27.96376795 29.01718611 C24.48285545 25.54126662 20.99951725 22.06780173 17.51432526 18.59617341 C15.35603049 16.44530582 13.1997807 14.29239729 11.0440979 12.1389122 C10.04034919 11.13704452 9.03573208 10.13604604 8.03021049 9.13595772 C6.66423157 7.77713198 5.30156419 6.41497961 3.93910217 5.05262756 C3.1738878 4.2896338 2.40867342 3.52664003 1.62027073 2.74052525 C0 1 0 1 0 0 Z " fill="#D80128" transform="translate(324,323)"/>
<path d="M0 0 C3.25643784 1.2491208 5.64353509 2.26480487 8.11328125 4.75 C8.63857422 5.2759375 9.16386719 5.801875 9.70507812 6.34375 C10.23552734 6.8903125 10.76597656 7.436875 11.3125 8 C11.86228516 8.5465625 12.41207031 9.093125 12.97851562 9.65625 C17 13.73268634 17 13.73268634 17 16 C15.62023067 17.35976505 15.62023067 17.35976505 13.65818787 18.97291565 C8.31788543 23.51901113 3.4113452 28.4637288 -1.53100586 33.43334961 C-2.56480871 34.46907561 -3.59884241 35.50457123 -4.63308716 36.53985596 C-6.84378605 38.75369481 -9.05292728 40.96907182 -11.26084709 43.1856823 C-14.74970032 46.68813131 -18.24243072 50.18669685 -21.73573303 53.68470764 C-29.13930147 61.09933427 -36.53860242 68.51821287 -43.9375 75.9375 C-51.95049189 83.9725214 -59.96422557 92.00679503 -67.98281389 100.03623205 C-71.45873338 103.51714455 -74.93219827 107.00048275 -78.40382659 110.48567474 C-80.55469418 112.64396951 -82.70760271 114.8002193 -84.8610878 116.9559021 C-85.86295548 117.95965081 -86.86395396 118.96426792 -87.86404228 119.96978951 C-89.22286802 121.33576843 -90.58502039 122.69843581 -91.94737244 124.06089783 C-92.7103662 124.8261122 -93.47335997 125.59132658 -94.25947475 126.37972927 C-96 128 -96 128 -97 128 C-100.64920945 101.32979595 -100.64920945 101.32979595 -93.23461914 90.46365356 C-88.43177836 84.58122388 -82.9990767 79.39323942 -77.41287804 74.26966596 C-74.63782437 71.69167978 -71.95328253 69.0223161 -69.25695801 66.36253357 C-64.16395545 61.36497193 -58.99753116 56.4515485 -53.79788828 51.56529802 C-47.87154643 45.98843687 -42.03556243 40.3206374 -36.20451069 34.64447892 C-24.2322663 22.99417102 -12.15468639 11.45990967 0 0 Z " fill="#D80128" transform="translate(420,60)"/>
</svg>
